<svg version="1.2" baseProfile="tiny-ps" xmlns="http://www.w3.org/2000/svg" viewBox="0 0 236 40" width="236" height="40">
	<title>logo-svg-svg-svg</title>
	<style>
		tspan { white-space:pre }
	</style>
	<g id="Layer">
		<path id="ma_photography " fill="#000000" aria-label="ma_photography"  d="M36.57 33L34.3 33L34.3 23.25Q34.3 21.46 33.53 20.57Q32.77 19.67 31.15 19.67Q29.03 19.67 28.02 20.89Q27.01 22.1 27.01 24.63L27.01 33L24.74 33L24.74 23.25Q24.74 21.46 23.98 20.57Q23.21 19.67 21.58 19.67Q19.45 19.67 18.45 20.96Q17.47 22.23 17.47 25.14L17.47 33L15.2 33L15.2 18.02L17.04 18.02L17.41 20.07L17.52 20.07Q18.17 18.97 19.33 18.36Q20.5 17.74 21.95 17.74Q25.47 17.74 26.55 20.29L26.66 20.29Q27.33 19.11 28.6 18.43Q29.87 17.74 31.5 17.74Q34.04 17.74 35.3 19.05Q36.57 20.35 36.57 23.22L36.57 33ZM52.14 33L50.46 33L50.01 30.87L49.9 30.87Q48.78 32.28 47.66 32.78Q46.55 33.27 44.88 33.27Q42.65 33.27 41.38 32.13Q40.12 30.98 40.12 28.86Q40.12 24.32 47.38 24.1L49.93 24.02L49.93 23.09Q49.93 21.32 49.16 20.49Q48.41 19.64 46.74 19.64Q44.87 19.64 42.5 20.79L41.8 19.05Q42.91 18.45 44.22 18.11Q45.55 17.77 46.88 17.77Q49.56 17.77 50.84 18.96Q52.14 20.15 52.14 22.77L52.14 33ZM45.33 31.4Q47.45 31.4 48.65 30.24Q49.87 29.08 49.87 26.98L49.87 25.63L47.6 25.73Q44.89 25.82 43.69 26.57Q42.5 27.31 42.5 28.88Q42.5 30.12 43.24 30.76Q43.99 31.4 45.33 31.4ZM67.02 35.52L67.02 37.31L54.36 37.31L54.36 35.52L67.02 35.52ZM76.34 33.27Q74.88 33.27 73.66 32.74Q72.46 32.19 71.64 31.07L71.47 31.07Q71.64 32.38 71.64 33.56L71.64 39.73L69.37 39.73L69.37 18.02L71.21 18.02L71.53 20.07L71.64 20.07Q72.51 18.84 73.67 18.29Q74.84 17.74 76.34 17.74Q79.32 17.74 80.93 19.78Q82.56 21.82 82.56 25.49Q82.56 29.19 80.91 31.24Q79.27 33.27 76.34 33.27ZM76.01 19.67Q73.71 19.67 72.69 20.94Q71.66 22.21 71.64 24.99L71.64 25.49Q71.64 28.65 72.69 30.02Q73.74 31.37 76.07 31.37Q78.01 31.37 79.1 29.8Q80.21 28.23 80.21 25.47Q80.21 22.66 79.1 21.17Q78.01 19.67 76.01 19.67ZM99.05 33L96.78 33L96.78 23.31Q96.78 21.47 95.94 20.57Q95.11 19.67 93.33 19.67Q90.97 19.67 89.87 20.96Q88.79 22.24 88.79 25.17L88.79 33L86.53 33L86.53 11.73L88.79 11.73L88.79 18.17Q88.79 19.33 88.69 20.09L88.82 20.09Q89.49 19.01 90.72 18.4Q91.97 17.77 93.55 17.77Q96.3 17.77 97.67 19.08Q99.05 20.38 99.05 23.22L99.05 33ZM116.64 25.49Q116.64 29.16 114.8 31.22Q112.95 33.27 109.7 33.27Q107.69 33.27 106.13 32.33Q104.57 31.39 103.72 29.62Q102.88 27.86 102.88 25.49Q102.88 21.83 104.71 19.79Q106.54 17.74 109.79 17.74Q112.94 17.74 114.78 19.83Q116.64 21.93 116.64 25.49ZM105.23 25.49Q105.23 28.37 106.38 29.87Q107.53 31.37 109.75 31.37Q111.98 31.37 113.13 29.88Q114.29 28.38 114.29 25.49Q114.29 22.64 113.13 21.16Q111.98 19.67 109.73 19.67Q107.5 19.67 106.36 21.13Q105.23 22.6 105.23 25.49ZM125.46 31.4Q126.06 31.4 126.62 31.32Q127.19 31.22 127.51 31.13L127.51 32.86Q127.14 33.04 126.42 33.16Q125.71 33.27 125.13 33.27Q120.79 33.27 120.79 28.69L120.79 19.78L118.64 19.78L118.64 18.69L120.79 17.74L121.74 14.54L123.06 14.54L123.06 18.02L127.4 18.02L127.4 19.78L123.06 19.78L123.06 28.6Q123.06 29.95 123.7 30.68Q124.34 31.4 125.46 31.4ZM143.44 25.49Q143.44 29.16 141.6 31.22Q139.75 33.27 136.5 33.27Q134.49 33.27 132.93 32.33Q131.37 31.39 130.52 29.62Q129.67 27.86 129.67 25.49Q129.67 21.83 131.51 19.79Q133.34 17.74 136.59 17.74Q139.74 17.74 141.58 19.83Q143.44 21.93 143.44 25.49ZM132.03 25.49Q132.03 28.37 133.17 29.87Q134.32 31.37 136.55 31.37Q138.78 31.37 139.93 29.88Q141.09 28.38 141.09 25.49Q141.09 22.64 139.93 21.16Q138.78 19.67 136.52 19.67Q134.29 19.67 133.16 21.13Q132.03 22.6 132.03 25.49ZM154.5 18.02L159.68 18.02L159.68 19.45L156.91 19.78Q157.29 20.26 157.59 21.04Q157.89 21.8 157.89 22.77Q157.89 24.97 156.39 26.29Q154.88 27.6 152.26 27.6Q151.59 27.6 151 27.49Q149.55 28.26 149.55 29.42Q149.55 30.03 150.06 30.33Q150.56 30.62 151.79 30.62L154.45 30.62Q156.88 30.62 158.18 31.65Q159.49 32.67 159.49 34.63Q159.49 37.12 157.5 38.43Q155.5 39.73 151.67 39.73Q148.73 39.73 147.13 38.63Q145.55 37.54 145.55 35.54Q145.55 34.18 146.42 33.18Q147.3 32.18 148.88 31.82Q148.31 31.56 147.91 31.02Q147.53 30.47 147.53 29.75Q147.53 28.93 147.97 28.31Q148.4 27.7 149.35 27.12Q148.19 26.64 147.45 25.49Q146.72 24.35 146.72 22.87Q146.72 20.41 148.2 19.08Q149.68 17.74 152.38 17.74Q153.56 17.74 154.5 18.02ZM147.73 35.52Q147.73 36.73 148.76 37.36Q149.78 37.99 151.7 37.99Q154.56 37.99 155.92 37.14Q157.3 36.28 157.3 34.82Q157.3 33.6 156.55 33.14Q155.8 32.66 153.72 32.66L151 32.66Q149.46 32.66 148.6 33.4Q147.73 34.13 147.73 35.52ZM148.96 22.81Q148.96 24.39 149.85 25.19Q150.74 26 152.33 26Q155.65 26 155.65 22.77Q155.65 19.4 152.29 19.4Q150.69 19.4 149.83 20.26Q148.96 21.12 148.96 22.81ZM169.6 17.74Q170.59 17.74 171.39 17.91L171.07 20.01Q170.14 19.81 169.43 19.81Q167.61 19.81 166.31 21.28Q165.03 22.76 165.03 24.96L165.03 33L162.76 33L162.76 18.02L164.63 18.02L164.89 20.79L165 20.79Q165.84 19.33 167.01 18.54Q168.19 17.74 169.6 17.74ZM185.09 33L183.4 33L182.95 30.87L182.84 30.87Q181.72 32.28 180.6 32.78Q179.49 33.27 177.83 33.27Q175.6 33.27 174.33 32.13Q173.07 30.98 173.07 28.86Q173.07 24.32 180.33 24.1L182.87 24.02L182.87 23.09Q182.87 21.32 182.11 20.49Q181.35 19.64 179.69 19.64Q177.81 19.64 175.45 20.79L174.75 19.05Q175.86 18.45 177.17 18.11Q178.5 17.77 179.82 17.77Q182.5 17.77 183.79 18.96Q185.09 20.15 185.09 22.77L185.09 33ZM178.28 31.4Q180.4 31.4 181.6 30.24Q182.82 29.08 182.82 26.98L182.82 25.63L180.55 25.73Q177.84 25.82 176.64 26.57Q175.45 27.31 175.45 28.88Q175.45 30.12 176.19 30.76Q176.94 31.4 178.28 31.4ZM196.73 33.27Q195.27 33.27 194.05 32.74Q192.85 32.19 192.03 31.07L191.87 31.07Q192.03 32.38 192.03 33.56L192.03 39.73L189.76 39.73L189.76 18.02L191.61 18.02L191.92 20.07L192.03 20.07Q192.91 18.84 194.07 18.29Q195.23 17.74 196.73 17.74Q199.71 17.74 201.33 19.78Q202.95 21.82 202.95 25.49Q202.95 29.19 201.3 31.24Q199.66 33.27 196.73 33.27ZM196.41 19.67Q194.11 19.67 193.08 20.94Q192.06 22.21 192.03 24.99L192.03 25.49Q192.03 28.65 193.08 30.02Q194.14 31.37 196.46 31.37Q198.4 31.37 199.5 29.8Q200.6 28.23 200.6 25.47Q200.6 22.66 199.5 21.17Q198.4 19.67 196.41 19.67ZM219.44 33L217.17 33L217.17 23.31Q217.17 21.47 216.34 20.57Q215.51 19.67 213.73 19.67Q211.36 19.67 210.27 20.96Q209.19 22.24 209.19 25.17L209.19 33L206.92 33L206.92 11.73L209.19 11.73L209.19 18.17Q209.19 19.33 209.08 20.09L209.22 20.09Q209.89 19.01 211.12 18.4Q212.36 17.77 213.95 17.77Q216.69 17.77 218.06 19.08Q219.44 20.38 219.44 23.22L219.44 33ZM227.77 33.08L221.73 18.02L224.16 18.02L227.44 26.56Q228.52 29.49 228.78 30.79L228.89 30.79Q229.07 30.09 229.63 28.41Q230.2 26.71 233.35 18.02L235.78 18.02L229.34 35.08Q228.38 37.61 227.1 38.67Q225.83 39.73 223.97 39.73Q222.93 39.73 221.92 39.49L221.92 37.68Q222.67 37.84 223.6 37.84Q225.94 37.84 226.94 35.21L227.77 33.08Z" />
	</g>
</svg>