<svg version="1.2" baseProfile="tiny-ps" xmlns="http://www.w3.org/2000/svg" viewBox="0 0 236 40" width="236" height="40">
	<title>logo-svg-svg</title>
	<style>
		tspan { white-space:pre }
	</style>
	<g id="Layer">
		<path id="m_n_n___mb " fill="#000000" aria-label="m_n_n___mb"  d="M17.64 11.92L22.02 11.92L22.15 14.02Q24.33 11.55 28.11 11.55Q32.26 11.55 33.79 14.63Q36.04 11.55 40.13 11.55Q43.56 11.55 45.22 13.39Q46.9 15.23 46.94 18.81L46.94 32L42.29 32L42.29 18.94Q42.29 17.03 41.43 16.14Q40.57 15.25 38.59 15.25Q37 15.25 35.99 16.08Q34.99 16.9 34.59 18.23L34.61 32L29.97 32L29.97 18.79Q29.87 15.25 26.24 15.25Q23.45 15.25 22.28 17.45L22.28 32L17.64 32L17.64 11.92ZM66.91 32L66.91 35.54L49.38 35.54L49.38 32L66.91 32ZM69.3 11.92L73.68 11.92L73.81 14.24Q76.1 11.55 79.83 11.55Q86.29 11.55 86.4 18.73L86.4 32L81.76 32L81.76 18.99Q81.76 17.08 80.9 16.17Q80.06 15.25 78.13 15.25Q75.32 15.25 73.94 17.71L73.94 32L69.3 32L69.3 11.92ZM106.34 32L106.34 35.54L88.81 35.54L88.81 32L106.34 32ZM108.73 11.92L113.1 11.92L113.24 14.24Q115.53 11.55 119.26 11.55Q125.72 11.55 125.83 18.73L125.83 32L121.19 32L121.19 18.99Q121.19 17.08 120.33 16.17Q119.48 15.25 117.55 15.25Q114.75 15.25 113.37 17.71L113.37 32L108.73 32L108.73 11.92ZM145.76 32L145.76 35.54L128.24 35.54L128.24 32L145.76 32ZM163.42 32L163.42 35.54L145.9 35.54L145.9 32L163.42 32ZM181.08 32L181.08 35.54L163.56 35.54L163.56 32L181.08 32Z" />
		<path id="m_n_n___mb " fill="#4821ca" aria-label="m_n_n___mb"  d="M183.53 11.92L187.9 11.92L188.04 14.02Q190.22 11.55 194 11.55Q198.15 11.55 199.68 14.63Q201.93 11.55 206.02 11.55Q209.44 11.55 211.1 13.39Q212.79 15.23 212.82 18.81L212.82 32L208.18 32L208.18 18.94Q208.18 17.03 207.32 16.14Q206.46 15.25 204.47 15.25Q202.89 15.25 201.87 16.08Q200.88 16.9 200.48 18.23L200.5 32L195.85 32L195.85 18.79Q195.76 15.25 192.13 15.25Q189.34 15.25 188.17 17.45L188.17 32L183.53 32L183.53 11.92ZM235.74 21.91L235.74 22.17Q235.74 26.84 233.58 29.61Q231.44 32.37 227.67 32.37Q224.04 32.37 222.02 29.83L221.79 32L217.58 32L217.58 3.5L222.23 3.5L222.23 13.85Q224.23 11.55 227.64 11.55Q231.42 11.55 233.58 14.28Q235.74 17.01 235.74 21.91ZM231.1 22.35L231.1 21.78Q231.1 18.51 229.91 16.88Q228.73 15.25 226.47 15.25Q223.45 15.25 222.23 17.81L222.23 26.08Q223.47 28.7 226.51 28.7Q228.69 28.7 229.87 27.12Q231.06 25.54 231.1 22.35Z" />
	</g>
</svg>