<svg version="1.2" baseProfile="tiny-ps" xmlns="http://www.w3.org/2000/svg" viewBox="0 0 236 40" width="236" height="40">
	<title>logo-svg-svg-svg</title>
	<style>
		tspan { white-space:pre }
	</style>
	<g id="Layer">
		<path id="Margarita " fill="#000000" aria-label="Margarita"  d="M17.07 2.03L21.84 2.03L30.98 24.85L40.12 2.03L44.91 2.03L44.91 30L41.22 30L41.22 19.11L41.57 7.35L32.38 30L29.56 30L20.4 7.41L20.76 19.11L20.76 30L17.07 30L17.07 2.03ZM67.42 30L63.69 30Q63.39 29.39 63.2 27.81Q60.72 30.38 57.28 30.38Q54.21 30.38 52.23 28.66Q50.27 26.91 50.27 24.24Q50.27 20.99 52.73 19.2Q55.2 17.4 59.68 17.4L63.14 17.4L63.14 15.77Q63.14 13.9 62.02 12.81Q60.91 11.69 58.74 11.69Q56.84 11.69 55.55 12.65Q54.26 13.61 54.26 14.98L50.69 14.98Q50.69 13.42 51.78 11.98Q52.9 10.52 54.78 9.68Q56.68 8.83 58.95 8.83Q62.54 8.83 64.58 10.64Q66.61 12.42 66.69 15.57L66.69 25.14Q66.69 28 67.42 29.69L67.42 30ZM57.8 27.29Q59.47 27.29 60.97 26.43Q62.47 25.56 63.14 24.18L63.14 19.91L60.35 19.91Q53.82 19.91 53.82 23.74Q53.82 25.41 54.94 26.35Q56.05 27.29 57.8 27.29ZM82.31 9.1L82.31 12.4Q81.5 12.27 80.56 12.27Q77.07 12.27 75.82 15.25L75.82 30L72.26 30L72.26 9.21L75.72 9.21L75.78 11.62Q77.53 8.83 80.73 8.83Q81.77 8.83 82.31 9.1ZM84.36 19.43Q84.36 14.57 86.61 11.71Q88.86 8.83 92.57 8.83Q96.37 8.83 98.5 11.52L98.68 9.21L101.92 9.21L101.92 29.5Q101.92 33.53 99.52 35.86Q97.14 38.18 93.11 38.18Q90.86 38.18 88.71 37.22Q86.55 36.26 85.42 34.59L87.27 32.46Q89.55 35.28 92.86 35.28Q95.45 35.28 96.89 33.82Q98.35 32.36 98.35 29.71L98.35 27.93Q96.22 30.38 92.53 30.38Q88.88 30.38 86.61 27.45Q84.36 24.51 84.36 19.43ZM87.94 19.84Q87.94 23.35 89.38 25.37Q90.82 27.37 93.41 27.37Q96.77 27.37 98.35 24.31L98.35 14.82Q96.72 11.85 93.45 11.85Q90.86 11.85 89.4 13.86Q87.94 15.88 87.94 19.84ZM123.84 30L120.11 30Q119.81 29.39 119.62 27.81Q117.14 30.38 113.7 30.38Q110.62 30.38 108.65 28.66Q106.69 26.91 106.69 24.24Q106.69 20.99 109.15 19.2Q111.62 17.4 116.1 17.4L119.56 17.4L119.56 15.77Q119.56 13.9 118.44 12.81Q117.33 11.69 115.16 11.69Q113.26 11.69 111.97 12.65Q110.68 13.61 110.68 14.98L107.11 14.98Q107.11 13.42 108.2 11.98Q109.32 10.52 111.2 9.68Q113.1 8.83 115.37 8.83Q118.96 8.83 121 10.64Q123.03 12.42 123.11 15.57L123.11 25.14Q123.11 28 123.84 29.69L123.84 30ZM114.22 27.29Q115.89 27.29 117.39 26.43Q118.89 25.56 119.56 24.18L119.56 19.91L116.77 19.91Q110.24 19.91 110.24 23.74Q110.24 25.41 111.35 26.35Q112.47 27.29 114.22 27.29ZM138.73 9.1L138.73 12.4Q137.92 12.27 136.98 12.27Q133.48 12.27 132.24 15.25L132.24 30L128.68 30L128.68 9.21L132.14 9.21L132.2 11.62Q133.95 8.83 137.15 8.83Q138.19 8.83 138.73 9.1ZM145.86 9.21L145.86 30L142.3 30L142.3 9.21L145.86 9.21ZM142.01 3.7Q142.01 2.84 142.53 2.24Q143.07 1.65 144.11 1.65Q145.15 1.65 145.68 2.24Q146.22 2.84 146.22 3.7Q146.22 4.57 145.68 5.14Q145.15 5.72 144.11 5.72Q143.07 5.72 142.53 5.14Q142.01 4.57 142.01 3.7ZM152.81 4.18L156.36 4.18L156.36 9.21L160.24 9.21L160.24 11.96L156.36 11.96L156.36 24.85Q156.36 26.1 156.88 26.73Q157.4 27.35 158.65 27.35Q159.26 27.35 160.34 27.12L160.34 30Q158.94 30.38 157.61 30.38Q155.23 30.38 154.02 28.94Q152.81 27.5 152.81 24.85L152.81 11.96L149.03 11.96L149.03 9.21L152.81 9.21L152.81 4.18ZM180.95 30L177.23 30Q176.92 29.39 176.73 27.81Q174.25 30.38 170.81 30.38Q167.74 30.38 165.76 28.66Q163.8 26.91 163.8 24.24Q163.8 20.99 166.26 19.2Q168.74 17.4 173.21 17.4L176.67 17.4L176.67 15.77Q176.67 13.9 175.55 12.81Q174.44 11.69 172.27 11.69Q170.37 11.69 169.08 12.65Q167.79 13.61 167.79 14.98L164.22 14.98Q164.22 13.42 165.32 11.98Q166.43 10.52 168.31 9.68Q170.21 8.83 172.48 8.83Q176.07 8.83 178.11 10.64Q180.15 12.42 180.22 15.57L180.22 25.14Q180.22 28 180.95 29.69L180.95 30ZM171.33 27.29Q173 27.29 174.5 26.43Q176 25.56 176.67 24.18L176.67 19.91L173.88 19.91Q167.35 19.91 167.35 23.74Q167.35 25.41 168.47 26.35Q169.58 27.29 171.33 27.29Z" />
	</g>
</svg>