<svg version="1.2" baseProfile="tiny-ps" xmlns="http://www.w3.org/2000/svg" viewBox="0 0 236 40" width="236" height="40">
	<title>logo-svg</title>
	<style>
		tspan { white-space:pre }
	</style>
	<g id="Layer">
		<path id="Manana Amb " fill="#d4c8f9" aria-label="Manana Amb"  d="M29.05 19.86L27.07 18.84L27.01 18.75Q27.01 18.39 26.86 17.97Q26.74 17.55 26.56 17.13Q26.38 16.71 26.14 16.32Q25.93 15.9 25.75 15.54L25.54 15.42Q25.93 16.35 26.35 17.1Q26.77 17.85 26.77 18.69L26.92 18.87L26.65 18.75L26.65 18.57Q26.11 17.52 25.6 16.29Q25.12 15.03 24.61 13.98Q24.31 15.99 23.86 18Q23.41 20.01 22.72 21.9Q22.12 23.52 21.28 25.02Q20.44 26.49 19.87 28.14L19.63 27.96L19.3 28.02Q19.03 27.96 19.03 27.66Q19.03 27.42 19.12 27.09Q19.21 26.73 19.33 26.37Q19.48 26.01 19.63 25.68Q19.78 25.32 19.87 25.11L19.6 25.02Q19.51 25.2 19.15 25.83Q18.82 26.46 18.4 27.12Q18.01 27.78 17.62 28.32Q17.23 28.86 17.02 28.86Q16.87 28.77 16.81 28.59Q16.75 28.38 16.75 28.23Q16.75 27.36 17.14 25.98Q17.56 24.6 18.1 23.13Q18.64 21.63 19.18 20.22Q19.75 18.81 20.05 17.85Q20.32 17.01 20.53 16.05Q20.77 15.06 20.92 14.07Q21.1 13.05 21.22 12.06Q21.34 11.07 21.43 10.17Q21.94 9.78 22.81 9.51Q23.71 9.24 24.46 8.94Q26.08 10.26 27.25 11.97Q28.42 13.68 29.29 15.84Q29.83 15.03 30.28 14.04Q30.76 13.05 31.15 12Q31.54 10.92 31.9 9.87Q32.26 8.82 32.62 7.92Q33.37 7.68 34.18 7.56Q35.02 7.44 35.83 7.29Q36.64 8.97 37.36 10.5Q38.08 12.03 38.68 13.59Q39.31 15.12 39.79 16.74Q40.3 18.36 40.69 20.22Q40.87 21.18 41.14 22.17Q41.41 23.13 41.62 24.12Q41.86 25.11 42.01 26.1Q42.19 27.09 42.19 28.08Q42.19 28.17 42.1 28.32Q42.04 28.47 41.8 28.5Q41.32 25.68 40.75 22.92Q40.18 20.22 39.34 17.55Q40.09 20.22 40.63 22.86Q41.2 25.59 41.62 28.41L41.2 28.65Q41.26 29.01 41.35 29.4Q41.44 29.79 41.44 30.15Q41.44 30.24 41.41 30.54Q41.41 30.81 41.35 31.11Q41.32 31.41 41.2 31.65Q41.11 31.86 40.93 31.86Q40.75 31.86 40.54 31.65Q40.36 31.41 40.18 31.11Q40.03 30.78 39.88 30.51Q39.76 30.21 39.7 30.06Q39.52 28.08 39.07 25.65Q38.65 23.19 38.05 20.7Q37.45 18.18 36.67 15.84Q35.92 13.47 35.08 11.67L35.05 11.82Q36.01 13.86 36.7 16.02Q37.39 18.15 37.9 20.37Q38.41 22.56 38.77 24.81Q39.13 27.03 39.4 29.22Q38.77 27.84 38.38 26.43Q38.02 24.99 37.72 23.58Q37.45 22.14 37.15 20.7Q36.88 19.26 36.46 17.79L36.67 17.19Q36.25 15.96 35.8 14.76Q35.38 13.56 34.81 12.42L34.69 12.72Q34.36 13.62 33.85 14.82Q33.34 16.02 32.65 17.16Q31.96 18.3 31.09 19.2Q30.25 20.1 29.23 20.4Q28.6 20.01 27.94 19.68Q27.31 19.32 26.65 18.96L26.65 18.78L27.85 19.44Q28.45 19.77 29.05 20.13L29.29 20.07Q30.58 19.32 31.36 18.57Q32.17 17.82 32.74 16.92Q33.31 16.02 33.73 14.91Q34.18 13.77 34.75 12.33L34.63 12.06L34.51 12.33L34 13.5Q33.7 14.22 33.25 15.06Q32.83 15.87 32.29 16.74Q31.78 17.58 31.24 18.3Q30.7 18.99 30.13 19.44Q29.56 19.86 29.05 19.86ZM37.3 11.64L37.39 11.58Q37.33 11.4 37.18 11.1Q37.03 10.77 36.85 10.44Q36.7 10.11 36.55 9.81Q36.4 9.48 36.31 9.33L36.64 10.26L37.3 11.64ZM34.27 11.88L34.24 11.7L33.22 14.4Q33.52 13.77 33.76 13.14Q34.03 12.51 34.27 11.88ZM33.64 8.94L33.46 8.94L33.85 9.93L34 9.9L33.64 8.94ZM21.94 10.5L21.73 10.56L21.67 11.46Q21.67 11.76 21.61 12.27L21.94 10.5ZM32.65 9.33L31.99 11.19L32.77 9.33L32.65 9.33ZM35.59 8.34L36.22 9.15L35.53 8.01L35.59 8.34ZM35.02 11.55L34.93 11.34L34.87 11.46L34.99 11.7L35.02 11.55ZM54.97 22.14Q54.16 22.14 53.74 22.11Q53.35 22.08 53.02 22.08Q52.12 22.08 51.43 22.17Q50.74 22.26 50.26 22.53Q49.78 22.8 49.54 23.31Q49.3 23.82 49.3 24.66Q49.3 25.89 49.57 26.49Q49.87 27.06 50.38 27.33Q50.92 27.57 51.67 27.63Q52.42 27.69 53.35 27.9Q53.89 27.96 54.43 27.99Q54.97 27.99 55.51 27.99L57.67 27.99Q56.17 27.9 54.67 27.9Q53.2 27.87 52 27.63Q50.83 27.39 50.08 26.79Q49.36 26.19 49.36 24.96Q49.36 23.97 49.6 23.46Q49.87 22.92 50.29 22.68Q50.74 22.41 51.34 22.38Q51.94 22.32 52.63 22.32Q53.47 22.32 54.34 22.41Q53.65 22.62 52.93 22.74Q52.24 22.83 51.64 22.95Q51.04 23.04 50.59 23.22Q50.17 23.37 50.02 23.67L50.02 25.02L49.78 25.14Q49.9 25.89 49.99 26.28Q50.11 26.64 50.59 26.85Q51.07 27.03 52.12 27.15Q53.2 27.27 55.24 27.54L57.4 27.54Q57.97 27.54 58.06 27.51Q58.18 27.45 58.21 27.45L57.94 25.83Q57.88 25.23 57.79 24.75Q57.7 24.27 57.55 23.73Q57.52 23.82 57.37 23.82Q57.52 24.33 57.61 24.9Q57.73 25.47 57.79 25.98Q57.88 26.49 57.91 26.85Q57.97 27.21 58.03 27.27L57.85 27.33Q57.79 27.36 57.67 27.36L57.49 27.36Q57.28 27.36 57.01 27.33Q56.74 27.27 56.32 27.27L55.33 27.27Q54.16 27.27 53.17 27.15Q52.24 27.03 51.55 26.85Q52.24 27 53.23 27.09Q54.28 27.21 55.18 27.21Q55.57 27.21 55.99 27.21Q56.44 27.18 56.95 27.18L57.94 27.18Q57.85 27.09 57.73 27.09L57.67 27.09Q57.55 25.02 57.13 23.13Q56.71 21.24 55.78 19.83Q54.85 18.39 53.35 17.55Q51.85 16.68 49.6 16.68Q48.97 16.68 48.34 16.77Q47.71 16.86 47.05 17.01Q47.11 16.95 47.11 16.89Q47.11 16.74 46.99 16.62Q46.87 16.47 46.87 16.32Q46.87 16.14 47.23 15.99Q47.62 15.81 48.85 15.66Q48.79 15.6 48.76 15.48Q48.76 15.36 48.76 15.3Q47.14 15.3 46.24 15.24Q45.34 15.15 45.34 14.79Q45.34 14.64 45.7 14.37Q46.09 14.1 46.78 13.86Q47.47 13.59 48.43 13.41Q49.42 13.2 50.62 13.2Q52.93 13.2 54.58 13.92Q56.23 14.61 57.34 15.78Q58.48 16.92 59.17 18.39Q59.89 19.86 60.31 21.36Q60.76 22.83 60.97 24.24Q61.18 25.62 61.36 26.64Q61.36 26.82 61.36 27Q61.39 27.18 61.39 27.42Q61.39 28.29 61.06 28.95Q60.76 29.58 60.19 30.03Q59.65 30.45 58.9 30.69Q58.18 30.9 57.34 30.9Q56.68 30.9 55.63 30.87Q54.58 30.84 53.62 30.69Q52.99 30.54 52.24 30.48Q51.49 30.39 50.71 30.21Q49.93 30.03 49.18 29.7Q48.46 29.37 47.86 28.71Q47.29 28.02 46.93 26.94Q46.6 25.86 46.6 24.21Q46.6 22.65 47.32 21.72Q48.04 20.76 49.03 20.25Q50.05 19.71 51.1 19.56Q52.15 19.38 52.81 19.38Q53.65 19.38 53.92 19.5Q54.19 19.62 54.19 19.74Q54.19 19.83 54.16 19.89Q53.41 19.89 52.24 19.95Q51.07 20.01 49.96 20.34Q48.88 20.67 48.1 21.36Q47.32 22.02 47.32 23.25Q47.59 22.14 48.22 21.51Q48.88 20.85 49.72 20.55Q50.56 20.22 51.43 20.16Q52.33 20.07 53.05 20.07L54.07 20.07Q53.95 20.19 53.95 20.31Q53.95 20.43 54.07 20.52L55.24 20.52Q55.72 20.61 55.93 20.85Q56.14 21.06 56.14 21.24Q56.14 21.51 55.87 21.72Q55.6 21.93 54.97 22.14ZM49.93 29.4Q50.77 29.73 51.64 29.91Q52.54 30.09 53.41 30.15Q54.28 30.24 55.03 30.24Q54.43 30.18 53.83 30.03Q53.2 29.88 52.72 29.76Q52.21 29.64 51.7 29.61Q51.22 29.55 50.68 29.46Q50.17 29.37 49.63 29.19Q49.09 28.98 48.55 28.59Q49.12 29.1 49.93 29.4ZM50.11 26.19L50.23 26.25Q50.2 26.22 50.41 26.43Q50.59 26.61 50.89 26.7Q50.74 26.64 50.44 26.55Q50.11 26.43 50.11 26.19ZM50.98 26.7Q50.95 26.7 50.89 26.7Q50.92 26.7 50.98 26.7ZM65.14 28.08Q65.14 27.93 65.23 27.72Q65.32 27.51 65.32 27.27Q65.41 26.55 65.44 26.25Q65.47 25.92 65.47 25.68Q65.47 24.42 65.38 22.98Q65.32 21.51 65.23 20.16Q65.23 19.74 65.2 19.17Q65.2 18.6 65.14 18.27Q65.23 17.22 65.29 16.2Q65.35 15.18 65.35 14.13L65.35 13.38Q65.35 12.99 65.32 12.6Q65.41 12.69 65.5 12.69Q65.62 12.69 65.74 12.6Q65.89 12.51 66.01 12.51Q66.22 12.51 66.34 12.96Q66.49 13.41 66.49 14.94L66.76 14.94Q66.91 13.26 67.21 12.27Q67.54 11.28 67.87 11.28Q68.02 11.28 68.35 11.94Q68.68 12.57 68.68 13.95L69.01 13.41Q69.34 13.02 69.73 12.6Q70.15 12.18 70.66 11.85Q71.17 11.52 71.8 11.31Q72.43 11.07 73.24 11.07Q74.8 11.07 75.94 11.79Q77.11 12.48 77.89 13.62Q78.67 14.73 79.15 16.17Q79.66 17.58 79.93 19.05Q80.2 20.49 80.29 21.84Q80.38 23.19 80.38 24.15Q80.38 25.02 80.26 25.2Q80.17 25.35 79.9 25.38Q79.84 23.07 79.6 20.67Q79.36 18.27 78.46 16.02Q79.27 18.39 79.48 20.7Q79.72 22.98 79.72 25.29Q79.54 25.2 79.39 25.2Q79.27 25.2 79.18 25.29Q79.18 25.53 79.21 25.8Q79.24 26.04 79.24 26.28Q79.27 26.52 79.27 26.73Q79.09 27.42 78.91 27.72Q78.73 28.02 78.58 28.02Q78.4 28.02 78.28 27.87Q78.16 27.69 78.04 27.45Q77.95 27.21 77.83 26.94Q77.74 26.64 77.56 26.37Q77.62 25.86 77.65 25.56Q77.68 25.23 77.68 25.02Q77.68 24.21 77.65 23.07Q77.62 21.93 77.47 20.7Q77.35 19.44 77.05 18.21Q76.78 16.95 76.27 15.99Q75.79 15 75.04 14.4Q74.29 13.77 73.24 13.77Q72.52 13.77 71.95 14.25Q71.41 14.73 70.99 15.48Q70.6 16.23 70.3 17.13Q70 18 69.82 18.81Q70.09 17.97 70.36 17.1Q70.66 16.23 71.05 15.51Q71.47 14.79 72.01 14.34Q72.55 13.86 73.27 13.86Q74.2 13.86 74.86 14.37Q75.55 14.88 76 15.69Q76.48 16.5 76.75 17.55Q77.05 18.57 77.2 19.65Q77.35 20.7 77.38 21.72Q77.44 22.71 77.44 23.43Q77.44 24 77.41 24.57Q77.41 25.14 77.38 25.74Q77.11 24.6 76.96 23.37Q76.84 22.11 76.69 20.91Q76.54 19.68 76.3 18.57Q76.09 17.43 75.67 16.47L75.88 16.17Q75.58 15.48 75.19 15.12Q74.83 14.73 74.47 14.55Q74.11 14.37 73.81 14.34Q73.51 14.31 73.42 14.31Q72.67 14.31 72.07 14.85Q71.5 15.39 71.05 16.32Q70.63 17.22 70.3 18.42Q69.97 19.62 69.73 20.94Q69.49 22.26 69.31 23.61Q69.13 24.93 69.01 26.1L69.28 26.1Q69.43 25.08 69.58 23.85Q69.76 22.62 69.94 21.36Q70.15 20.07 70.42 18.87Q70.69 17.67 71.05 16.71Q71.44 15.75 71.95 15.15Q72.43 14.58 73.12 14.49Q72.46 14.64 72.01 15.33Q71.53 16.05 71.17 17.1Q70.81 18.15 70.51 19.41Q70.24 20.64 70 21.78L69.4 26.16Q69.28 26.58 69.22 26.91L69.1 27.54Q69.04 27.84 68.98 28.2Q68.92 28.53 68.83 28.98L68.74 29.34L68.56 29.34L65.53 28.32Q65.38 28.29 65.29 28.23Q65.23 28.17 65.14 28.08ZM70.36 12.69Q69.76 13.2 69.4 13.8Q69.07 14.37 68.77 14.97L68.77 15Q69.19 14.13 69.94 13.23Q70.66 12.39 71.86 11.97Q71.47 12.09 71.11 12.21Q70.69 12.36 70.36 12.69ZM73.96 11.7Q73.81 11.67 73.54 11.67Q74.5 11.91 75.34 12.21Q76.18 12.48 76.93 13.32Q76.42 12.63 75.58 12.24Q74.77 11.85 73.96 11.7ZM75.07 15.39L74.77 15.12Q74.53 14.94 74.2 14.85Q73.9 14.73 73.45 14.55L73.42 14.49Q73.93 14.52 74.32 14.73Q74.71 14.91 75.07 15.39ZM76.99 13.38Q77.41 13.89 77.77 14.55Q78.13 15.21 78.4 15.72Q78.1 15.03 77.83 14.46Q77.56 13.89 76.99 13.38ZM93.91 22.14Q93.1 22.14 92.68 22.11Q92.29 22.08 91.96 22.08Q91.06 22.08 90.37 22.17Q89.68 22.26 89.2 22.53Q88.72 22.8 88.48 23.31Q88.24 23.82 88.24 24.66Q88.24 25.89 88.51 26.49Q88.81 27.06 89.32 27.33Q89.86 27.57 90.61 27.63Q91.36 27.69 92.29 27.9Q92.83 27.96 93.37 27.99Q93.91 27.99 94.45 27.99L96.61 27.99Q95.11 27.9 93.61 27.9Q92.14 27.87 90.94 27.63Q89.77 27.39 89.02 26.79Q88.3 26.19 88.3 24.96Q88.3 23.97 88.54 23.46Q88.81 22.92 89.23 22.68Q89.68 22.41 90.28 22.38Q90.88 22.32 91.57 22.32Q92.41 22.32 93.28 22.41Q92.59 22.62 91.87 22.74Q91.18 22.83 90.58 22.95Q89.98 23.04 89.53 23.22Q89.11 23.37 88.96 23.67L88.96 25.02L88.72 25.14Q88.84 25.89 88.93 26.28Q89.05 26.64 89.53 26.85Q90.01 27.03 91.06 27.15Q92.14 27.27 94.18 27.54L96.34 27.54Q96.91 27.54 97 27.51Q97.12 27.45 97.15 27.45L96.88 25.83Q96.82 25.23 96.73 24.75Q96.64 24.27 96.49 23.73Q96.46 23.82 96.31 23.82Q96.46 24.33 96.55 24.9Q96.67 25.47 96.73 25.98Q96.82 26.49 96.85 26.85Q96.91 27.21 96.97 27.27L96.79 27.33Q96.73 27.36 96.61 27.36L96.43 27.36Q96.22 27.36 95.95 27.33Q95.68 27.27 95.26 27.27L94.27 27.27Q93.1 27.27 92.11 27.15Q91.18 27.03 90.49 26.85Q91.18 27 92.17 27.09Q93.22 27.21 94.12 27.21Q94.51 27.21 94.93 27.21Q95.38 27.18 95.89 27.18L96.88 27.18Q96.79 27.09 96.67 27.09L96.61 27.09Q96.49 25.02 96.07 23.13Q95.65 21.24 94.72 19.83Q93.79 18.39 92.29 17.55Q90.79 16.68 88.54 16.68Q87.91 16.68 87.28 16.77Q86.65 16.86 85.99 17.01Q86.05 16.95 86.05 16.89Q86.05 16.74 85.93 16.62Q85.81 16.47 85.81 16.32Q85.81 16.14 86.17 15.99Q86.56 15.81 87.79 15.66Q87.73 15.6 87.7 15.48Q87.7 15.36 87.7 15.3Q86.08 15.3 85.18 15.24Q84.28 15.15 84.28 14.79Q84.28 14.64 84.64 14.37Q85.03 14.1 85.72 13.86Q86.41 13.59 87.37 13.41Q88.36 13.2 89.56 13.2Q91.87 13.2 93.52 13.92Q95.17 14.61 96.28 15.78Q97.42 16.92 98.11 18.39Q98.83 19.86 99.25 21.36Q99.7 22.83 99.91 24.24Q100.12 25.62 100.3 26.64Q100.3 26.82 100.3 27Q100.33 27.18 100.33 27.42Q100.33 28.29 100 28.95Q99.7 29.58 99.13 30.03Q98.59 30.45 97.84 30.69Q97.12 30.9 96.28 30.9Q95.62 30.9 94.57 30.87Q93.52 30.84 92.56 30.69Q91.93 30.54 91.18 30.48Q90.43 30.39 89.65 30.21Q88.87 30.03 88.12 29.7Q87.4 29.37 86.8 28.71Q86.23 28.02 85.87 26.94Q85.54 25.86 85.54 24.21Q85.54 22.65 86.26 21.72Q86.98 20.76 87.97 20.25Q88.99 19.71 90.04 19.56Q91.09 19.38 91.75 19.38Q92.59 19.38 92.86 19.5Q93.13 19.62 93.13 19.74Q93.13 19.83 93.1 19.89Q92.35 19.89 91.18 19.95Q90.01 20.01 88.9 20.34Q87.82 20.67 87.04 21.36Q86.26 22.02 86.26 23.25Q86.53 22.14 87.16 21.51Q87.82 20.85 88.66 20.55Q89.5 20.22 90.37 20.16Q91.27 20.07 91.99 20.07L93.01 20.07Q92.89 20.19 92.89 20.31Q92.89 20.43 93.01 20.52L94.18 20.52Q94.66 20.61 94.87 20.85Q95.08 21.06 95.08 21.24Q95.08 21.51 94.81 21.72Q94.54 21.93 93.91 22.14ZM88.87 29.4Q89.71 29.73 90.58 29.91Q91.48 30.09 92.35 30.15Q93.22 30.24 93.97 30.24Q93.37 30.18 92.77 30.03Q92.14 29.88 91.66 29.76Q91.15 29.64 90.64 29.61Q90.16 29.55 89.62 29.46Q89.11 29.37 88.57 29.19Q88.03 28.98 87.49 28.59Q88.06 29.1 88.87 29.4ZM89.05 26.19L89.17 26.25Q89.14 26.22 89.35 26.43Q89.53 26.61 89.83 26.7Q89.68 26.64 89.38 26.55Q89.05 26.43 89.05 26.19ZM89.92 26.7Q89.89 26.7 89.83 26.7Q89.86 26.7 89.92 26.7ZM104.08 28.08Q104.08 27.93 104.17 27.72Q104.26 27.51 104.26 27.27Q104.35 26.55 104.38 26.25Q104.41 25.92 104.41 25.68Q104.41 24.42 104.32 22.98Q104.26 21.51 104.17 20.16Q104.17 19.74 104.14 19.17Q104.14 18.6 104.08 18.27Q104.17 17.22 104.23 16.2Q104.29 15.18 104.29 14.13L104.29 13.38Q104.29 12.99 104.26 12.6Q104.35 12.69 104.44 12.69Q104.56 12.69 104.68 12.6Q104.83 12.51 104.95 12.51Q105.16 12.51 105.28 12.96Q105.43 13.41 105.43 14.94L105.7 14.94Q105.85 13.26 106.15 12.27Q106.48 11.28 106.81 11.28Q106.96 11.28 107.29 11.94Q107.62 12.57 107.62 13.95L107.95 13.41Q108.28 13.02 108.67 12.6Q109.09 12.18 109.6 11.85Q110.11 11.52 110.74 11.31Q111.37 11.07 112.18 11.07Q113.74 11.07 114.88 11.79Q116.05 12.48 116.83 13.62Q117.61 14.73 118.09 16.17Q118.6 17.58 118.87 19.05Q119.14 20.49 119.23 21.84Q119.32 23.19 119.32 24.15Q119.32 25.02 119.2 25.2Q119.11 25.35 118.84 25.38Q118.78 23.07 118.54 20.67Q118.3 18.27 117.4 16.02Q118.21 18.39 118.42 20.7Q118.66 22.98 118.66 25.29Q118.48 25.2 118.33 25.2Q118.21 25.2 118.12 25.29Q118.12 25.53 118.15 25.8Q118.18 26.04 118.18 26.28Q118.21 26.52 118.21 26.73Q118.03 27.42 117.85 27.72Q117.67 28.02 117.52 28.02Q117.34 28.02 117.22 27.87Q117.1 27.69 116.98 27.45Q116.89 27.21 116.77 26.94Q116.68 26.64 116.5 26.37Q116.56 25.86 116.59 25.56Q116.62 25.23 116.62 25.02Q116.62 24.21 116.59 23.07Q116.56 21.93 116.41 20.7Q116.29 19.44 115.99 18.21Q115.72 16.95 115.21 15.99Q114.73 15 113.98 14.4Q113.23 13.77 112.18 13.77Q111.46 13.77 110.89 14.25Q110.35 14.73 109.93 15.48Q109.54 16.23 109.24 17.13Q108.94 18 108.76 18.81Q109.03 17.97 109.3 17.1Q109.6 16.23 109.99 15.51Q110.41 14.79 110.95 14.34Q111.49 13.86 112.21 13.86Q113.14 13.86 113.8 14.37Q114.49 14.88 114.94 15.69Q115.42 16.5 115.69 17.55Q115.99 18.57 116.14 19.65Q116.29 20.7 116.32 21.72Q116.38 22.71 116.38 23.43Q116.38 24 116.35 24.57Q116.35 25.14 116.32 25.74Q116.05 24.6 115.9 23.37Q115.78 22.11 115.63 20.91Q115.48 19.68 115.24 18.57Q115.03 17.43 114.61 16.47L114.82 16.17Q114.52 15.48 114.13 15.12Q113.77 14.73 113.41 14.55Q113.05 14.37 112.75 14.34Q112.45 14.31 112.36 14.31Q111.61 14.31 111.01 14.85Q110.44 15.39 109.99 16.32Q109.57 17.22 109.24 18.42Q108.91 19.62 108.67 20.94Q108.43 22.26 108.25 23.61Q108.07 24.93 107.95 26.1L108.22 26.1Q108.37 25.08 108.52 23.85Q108.7 22.62 108.88 21.36Q109.09 20.07 109.36 18.87Q109.63 17.67 109.99 16.71Q110.38 15.75 110.89 15.15Q111.37 14.58 112.06 14.49Q111.4 14.64 110.95 15.33Q110.47 16.05 110.11 17.1Q109.75 18.15 109.45 19.41Q109.18 20.64 108.94 21.78L108.34 26.16Q108.22 26.58 108.16 26.91L108.04 27.54Q107.98 27.84 107.92 28.2Q107.86 28.53 107.77 28.98L107.68 29.34L107.5 29.34L104.47 28.32Q104.32 28.29 104.23 28.23Q104.17 28.17 104.08 28.08ZM109.3 12.69Q108.7 13.2 108.34 13.8Q108.01 14.37 107.71 14.97L107.71 15Q108.13 14.13 108.88 13.23Q109.6 12.39 110.8 11.97Q110.41 12.09 110.05 12.21Q109.63 12.36 109.3 12.69ZM112.9 11.7Q112.75 11.67 112.48 11.67Q113.44 11.91 114.28 12.21Q115.12 12.48 115.87 13.32Q115.36 12.63 114.52 12.24Q113.71 11.85 112.9 11.7ZM114.01 15.39L113.71 15.12Q113.47 14.94 113.14 14.85Q112.84 14.73 112.39 14.55L112.36 14.49Q112.87 14.52 113.26 14.73Q113.65 14.91 114.01 15.39ZM115.93 13.38Q116.35 13.89 116.71 14.55Q117.07 15.21 117.34 15.72Q117.04 15.03 116.77 14.46Q116.5 13.89 115.93 13.38ZM132.85 22.14Q132.04 22.14 131.62 22.11Q131.23 22.08 130.9 22.08Q130 22.08 129.31 22.17Q128.62 22.26 128.14 22.53Q127.66 22.8 127.42 23.31Q127.18 23.82 127.18 24.66Q127.18 25.89 127.45 26.49Q127.75 27.06 128.26 27.33Q128.8 27.57 129.55 27.63Q130.3 27.69 131.23 27.9Q131.77 27.96 132.31 27.99Q132.85 27.99 133.39 27.99L135.55 27.99Q134.05 27.9 132.55 27.9Q131.08 27.87 129.88 27.63Q128.71 27.39 127.96 26.79Q127.24 26.19 127.24 24.96Q127.24 23.97 127.48 23.46Q127.75 22.92 128.17 22.68Q128.62 22.41 129.22 22.38Q129.82 22.32 130.51 22.32Q131.35 22.32 132.22 22.41Q131.53 22.62 130.81 22.74Q130.12 22.83 129.52 22.95Q128.92 23.04 128.47 23.22Q128.05 23.37 127.9 23.67L127.9 25.02L127.66 25.14Q127.78 25.89 127.87 26.28Q127.99 26.64 128.47 26.85Q128.95 27.03 130 27.15Q131.08 27.27 133.12 27.54L135.28 27.54Q135.85 27.54 135.94 27.51Q136.06 27.45 136.09 27.45L135.82 25.83Q135.76 25.23 135.67 24.75Q135.58 24.27 135.43 23.73Q135.4 23.82 135.25 23.82Q135.4 24.33 135.49 24.9Q135.61 25.47 135.67 25.98Q135.76 26.49 135.79 26.85Q135.85 27.21 135.91 27.27L135.73 27.33Q135.67 27.36 135.55 27.36L135.37 27.36Q135.16 27.36 134.89 27.33Q134.62 27.27 134.2 27.27L133.21 27.27Q132.04 27.27 131.05 27.15Q130.12 27.03 129.43 26.85Q130.12 27 131.11 27.09Q132.16 27.21 133.06 27.21Q133.45 27.21 133.87 27.21Q134.32 27.18 134.83 27.18L135.82 27.18Q135.73 27.09 135.61 27.09L135.55 27.09Q135.43 25.02 135.01 23.13Q134.59 21.24 133.66 19.83Q132.73 18.39 131.23 17.55Q129.73 16.68 127.48 16.68Q126.85 16.68 126.22 16.77Q125.59 16.86 124.93 17.01Q124.99 16.95 124.99 16.89Q124.99 16.74 124.87 16.62Q124.75 16.47 124.75 16.32Q124.75 16.14 125.11 15.99Q125.5 15.81 126.73 15.66Q126.67 15.6 126.64 15.48Q126.64 15.36 126.64 15.3Q125.02 15.3 124.12 15.24Q123.22 15.15 123.22 14.79Q123.22 14.64 123.58 14.37Q123.97 14.1 124.66 13.86Q125.35 13.59 126.31 13.41Q127.3 13.2 128.5 13.2Q130.81 13.2 132.46 13.92Q134.11 14.61 135.22 15.78Q136.36 16.92 137.05 18.39Q137.77 19.86 138.19 21.36Q138.64 22.83 138.85 24.24Q139.06 25.62 139.24 26.64Q139.24 26.82 139.24 27Q139.27 27.18 139.27 27.42Q139.27 28.29 138.94 28.95Q138.64 29.58 138.07 30.03Q137.53 30.45 136.78 30.69Q136.06 30.9 135.22 30.9Q134.56 30.9 133.51 30.87Q132.46 30.84 131.5 30.69Q130.87 30.54 130.12 30.48Q129.37 30.39 128.59 30.21Q127.81 30.03 127.06 29.7Q126.34 29.37 125.74 28.71Q125.17 28.02 124.81 26.94Q124.48 25.86 124.48 24.21Q124.48 22.65 125.2 21.72Q125.92 20.76 126.91 20.25Q127.93 19.71 128.98 19.56Q130.03 19.38 130.69 19.38Q131.53 19.38 131.8 19.5Q132.07 19.62 132.07 19.74Q132.07 19.83 132.04 19.89Q131.29 19.89 130.12 19.95Q128.95 20.01 127.84 20.34Q126.76 20.67 125.98 21.36Q125.2 22.02 125.2 23.25Q125.47 22.14 126.1 21.51Q126.76 20.85 127.6 20.55Q128.44 20.22 129.31 20.16Q130.21 20.07 130.93 20.07L131.95 20.07Q131.83 20.19 131.83 20.31Q131.83 20.43 131.95 20.52L133.12 20.52Q133.6 20.61 133.81 20.85Q134.02 21.06 134.02 21.24Q134.02 21.51 133.75 21.72Q133.48 21.93 132.85 22.14ZM127.81 29.4Q128.65 29.73 129.52 29.91Q130.42 30.09 131.29 30.15Q132.16 30.24 132.91 30.24Q132.31 30.18 131.71 30.03Q131.08 29.88 130.6 29.76Q130.09 29.64 129.58 29.61Q129.1 29.55 128.56 29.46Q128.05 29.37 127.51 29.19Q126.97 28.98 126.43 28.59Q127 29.1 127.81 29.4ZM127.99 26.19L128.11 26.25Q128.08 26.22 128.29 26.43Q128.47 26.61 128.77 26.7Q128.62 26.64 128.32 26.55Q127.99 26.43 127.99 26.19ZM128.86 26.7Q128.83 26.7 128.77 26.7Q128.8 26.7 128.86 26.7ZM168.67 24.84L168.4 25.11L168.22 25.02Q166.96 24.69 165.55 24.6Q164.14 24.51 162.67 24.21Q164.11 24.51 165.49 24.69Q166.87 24.84 168.22 25.29Q167.8 25.56 167.32 25.56Q166.75 25.5 166.18 25.38Q165.64 25.26 165.01 25.2Q165.01 25.02 165.1 24.93Q164.23 24.93 163.36 24.75Q162.52 24.57 161.71 24.36Q160.9 24.12 160.12 23.94Q159.37 23.73 158.71 23.73Q158.71 23.82 158.68 23.82Q159.46 23.97 160.15 24.24Q160.84 24.51 161.71 24.66Q162.55 24.87 163.33 24.96Q164.14 25.05 164.92 25.2Q163.66 25.08 162.34 24.84Q161.05 24.6 159.79 24.3L158.38 23.94Q157.63 25.86 156.85 27.72Q156.1 29.55 155.38 31.44Q155.32 31.32 155.17 31.32Q155.05 31.29 154.9 31.29Q154.78 31.29 154.66 31.23Q154.54 31.14 154.54 30.9Q154.54 30.66 154.66 30.24Q154.78 29.79 155.11 29.07Q155.05 29.01 154.9 29.01Q154.78 28.98 154.72 28.98Q154.12 30.24 153.55 30.93Q153.01 31.59 152.68 31.59Q152.32 31.59 152.32 30.9Q152.32 30.33 152.53 29.46Q152.74 28.56 153.04 27.54Q153.37 26.52 153.76 25.44Q154.15 24.33 154.51 23.28Q154.18 23.07 153.79 22.98Q153.43 22.89 152.98 22.83Q153.07 22.71 153.07 22.53Q153.07 22.35 153.1 22.17Q153.13 21.99 153.22 21.87Q153.31 21.75 153.55 21.75Q153.61 21.75 153.91 21.81L153.91 21.54Q153.43 21.3 153.16 20.97Q152.92 20.64 152.92 20.31Q152.92 19.59 154.3 19.59Q154.69 19.59 155.08 19.65Q155.5 19.68 155.92 19.74L157.3 16.59Q157.75 15.57 158.26 14.49Q158.8 13.41 159.52 12.36Q160.24 11.31 161.14 10.38Q162.07 9.42 163.27 8.67L163.72 8.49Q164.56 8.7 165.07 8.85Q165.61 8.97 165.94 9.03Q166.24 9.15 166.42 9.18L166.39 9.18L166.42 9.27Q166.42 9.3 166.39 9.33L166.75 9.96Q168.7 13.23 170.05 16.74Q171.4 20.25 172.36 23.64Q172.6 24.39 172.93 25.26Q173.29 26.1 173.59 26.88Q173.92 27.63 174.13 28.26Q174.34 28.86 174.34 29.13Q174.34 29.34 174.25 29.4Q174.16 29.43 174.01 29.43Q173.23 27.48 172.54 25.59Q171.85 23.73 171.19 21.84Q171.79 23.73 172.45 25.59Q173.14 27.48 173.83 29.43L173.62 29.43Q173.44 29.43 173.38 29.61Q173.44 29.67 173.53 29.94Q173.62 30.18 173.71 30.48Q173.8 30.75 173.86 31.05Q173.92 31.35 173.92 31.5Q173.92 32.16 173.53 32.16Q173.32 32.16 173.2 32.07Q173.08 31.98 172.93 31.83L172.63 31.53Q172.45 31.35 172.18 31.17L169.3 22.89Q169.93 24.84 170.53 26.79Q171.16 28.74 171.82 30.63Q171.34 30.06 170.92 29.25Q170.53 28.44 170.17 27.54Q169.84 26.64 169.54 25.71Q169.24 24.75 168.94 23.91Q168.94 23.97 168.94 24.03Q168.97 24.06 168.97 24.12Q168.97 24.6 168.67 24.84ZM168.82 23.58L168.22 21.99Q168.28 21.99 168.4 21.96Q168.52 21.9 168.58 21.9Q167.59 19.41 166.6 17.07Q165.64 14.73 164.47 12.57L164.29 12.75L164.74 13.56Q165.79 15.48 166.63 17.52Q167.47 19.56 168.22 21.72Q167.35 19.38 166.33 17.07Q165.34 14.73 164.2 12.84L164.08 12.9Q163.06 13.95 162.16 15.42Q161.29 16.89 160.51 18.42L159.73 20.31L160.24 20.43Q160.69 20.55 161.11 20.7Q161.56 20.82 161.89 20.97Q162.55 21.3 163.63 21.48Q164.71 21.66 165.73 21.84Q166.78 21.99 167.53 22.2Q168.31 22.38 168.31 22.74L164.65 22.32Q164.98 22.38 165.46 22.47Q165.94 22.53 166.42 22.62Q166.93 22.71 167.41 22.8Q167.89 22.86 168.22 22.92Q168.22 23.01 168.19 23.1Q168.19 23.16 168.19 23.22Q168.19 23.28 168.25 23.31Q168.34 23.31 168.43 23.34Q168.55 23.34 168.64 23.4Q168.73 23.43 168.82 23.58ZM161.71 15.57Q161.77 15.57 161.74 15.66Q161.74 15.72 161.77 15.72Q161.83 15.72 162.13 15.3Q162.43 14.88 162.82 14.34Q163.21 13.8 163.57 13.32Q163.93 12.84 164.08 12.69L163.93 12.48Q163.3 13.08 162.76 13.89Q162.22 14.7 161.71 15.57ZM164.77 12.33L164.74 12.33Q165.7 13.95 166.51 15.72Q167.29 17.46 167.98 19.2Q167.41 17.46 166.6 15.72Q165.76 13.95 164.77 12.33ZM169.33 16.83Q170.26 19.23 171.16 21.72Q170.32 19.29 169.39 16.92Q168.52 14.58 167.38 12.21Q168.46 14.49 169.33 16.83ZM165.04 11.52L164.92 11.67Q165.31 11.76 165.46 11.85Q165.61 11.94 165.67 11.94L165.7 11.85Q165.73 11.85 165.58 11.82Q165.43 11.79 165.34 11.76L165.4 11.64L165.04 11.52ZM163.39 11.31L163.45 11.37L163.69 12L163.66 11.37Q163.6 11.37 163.51 11.34Q163.45 11.31 163.39 11.31ZM164.38 12.45L164.23 12.24L164.02 12.39L164.2 12.63L164.38 12.45ZM164.53 12L164.65 12.18L164.68 12.18L164.53 11.97L164.53 12ZM189.76 28.92L189.55 28.56Q189.55 27.57 189.4 26.55Q189.28 25.53 189.28 24.57L189.28 23.76Q189.13 22.59 188.92 21.03Q188.71 19.44 188.38 18.03Q188.05 16.62 187.57 15.63Q187.09 14.64 186.37 14.64Q185.32 14.64 184.21 15.63Q183.1 16.59 182.35 18.45Q181.99 19.5 181.84 20.67Q181.72 21.84 181.63 23.13Q181.54 24.42 181.45 25.8Q181.39 27.15 181.18 28.62Q181.12 28.77 181.06 28.98Q181.03 29.19 181 29.34L177.31 29.34L177.31 26.91Q177.28 26.61 177.25 26.19Q177.22 25.77 177.16 25.35Q177.13 24.9 177.1 24.48Q177.07 24.06 177.04 23.76Q177.04 21.33 176.83 18.9Q176.65 16.47 176.59 13.95L177.28 13.8Q177.37 13.8 177.46 13.98Q177.58 14.13 177.64 14.58Q177.73 15.03 177.79 15.87Q177.88 16.68 177.94 18Q177.97 18 178.03 17.97Q178.15 17.91 178.21 17.91Q178.21 17.7 178.18 17.49Q178.18 17.28 178.18 17.07Q178.18 14.49 178.51 13.11Q178.87 11.7 179.11 11.7Q179.29 11.7 179.47 12.48Q179.65 13.26 179.86 14.94Q180.37 14.13 181.03 13.38Q181.69 12.63 182.5 12.09Q183.34 11.52 184.3 11.19Q185.26 10.86 186.4 10.86Q187.39 10.86 188.14 11.28Q188.89 11.7 189.46 12.39Q190.06 13.05 190.45 13.92Q190.87 14.76 191.17 15.63Q191.47 16.47 191.65 17.28Q191.86 18.06 192.01 18.6Q192.01 18.66 192.04 18.75Q192.07 18.81 192.1 18.87Q192.46 17.91 193 16.68Q193.54 15.42 194.35 14.31Q195.16 13.2 196.24 12.45Q197.35 11.67 198.79 11.67Q200.2 11.67 201.19 12.42Q202.18 13.17 202.84 14.34Q203.53 15.51 203.92 16.95Q204.34 18.36 204.55 19.74Q204.76 21.09 204.82 22.23Q204.88 23.37 204.88 23.97Q204.88 24.93 204.79 25.38Q204.73 25.83 204.4 25.83Q204.34 24.63 204.28 23.4Q204.25 22.17 204.1 20.94Q203.98 19.68 203.74 18.48Q203.5 17.31 203.11 16.17Q203.86 18.54 203.98 20.91Q204.13 23.31 204.22 25.65Q204.01 25.44 203.89 25.44Q203.8 25.44 203.77 25.56L203.77 26.46Q203.77 26.85 203.77 27.27Q203.8 27.69 203.86 27.99Q203.8 29.22 203.74 29.76Q203.71 30.27 203.53 30.42Q203.29 30.42 203.11 30.15Q202.93 29.88 202.75 29.46Q202.6 29.04 202.45 28.53Q202.3 28.02 202.15 27.54L202.15 26.73Q202.15 25.41 202.12 23.97Q202.12 22.53 202 21.18Q201.91 19.8 201.67 18.57Q201.46 17.34 201.07 16.41Q200.71 15.45 200.11 14.91Q199.54 14.37 198.7 14.37Q198.01 14.37 197.44 14.73Q197.11 14.94 196.78 15.27Q197.11 14.97 197.47 14.76Q198.04 14.4 198.7 14.4L198.82 14.4Q199.57 14.4 200.08 15Q200.62 15.57 200.95 16.53Q201.31 17.49 201.49 18.72Q201.67 19.95 201.76 21.27Q201.88 22.59 201.91 23.91Q201.94 25.2 201.97 26.28Q201.79 25.44 201.64 24.3Q201.52 23.13 201.37 21.87Q201.25 20.61 201.04 19.38Q200.86 18.15 200.56 17.19Q200.26 16.2 199.81 15.6Q199.36 15 198.7 15Q198.43 15 198.22 15.06Q198.01 15.09 197.68 15.36L197.38 15.21Q196.36 16.11 195.67 17.61Q194.98 19.11 194.5 20.85Q194.02 22.56 193.69 24.36Q193.36 26.16 193.06 27.69L193.06 28.83Q193.54 26.46 193.93 24.18Q194.35 21.87 195.13 19.71Q194.53 21.57 194.2 23.55Q193.87 25.53 193.45 27.6Q193.45 27.81 193.36 28.17Q193.27 28.53 193.06 29.25L189.76 28.92ZM189.64 28.17L189.88 27.06Q189.79 26.25 189.7 24.99Q189.64 23.73 189.52 22.32Q189.4 20.91 189.19 19.47Q188.98 18.03 188.59 16.89Q188.23 15.72 187.66 15Q187.12 14.28 186.28 14.28Q186.01 14.28 185.71 14.4Q185.41 14.52 185.14 14.67Q185.23 14.64 185.29 14.64L185.32 14.64Q185.32 14.67 185.23 14.76Q186.04 14.49 186.49 14.49Q187.06 14.7 187.51 15.42Q187.96 16.14 188.26 17.16Q188.59 18.15 188.8 19.32Q189.04 20.49 189.16 21.57Q189.28 22.62 189.34 23.46Q189.4 24.3 189.4 24.66Q189.49 25.56 189.55 26.43Q189.64 27.3 189.64 28.17ZM192.4 18.99Q192.4 19.02 192.46 19.26Q192.52 19.47 192.55 19.53Q192.64 19.23 192.94 18.57Q193.24 17.88 193.6 17.13Q193.96 16.35 194.29 15.69Q194.41 15.42 194.5 15.21Q194.41 15.39 194.26 15.6Q193.93 16.2 193.54 16.86Q193.15 17.49 192.82 18.09Q192.49 18.69 192.4 18.99ZM194.77 18.63Q194.17 20.16 193.72 21.87Q193.27 23.55 192.91 25.35L192.97 25.83Q193.36 23.67 193.87 21.48Q194.35 19.56 195.1 17.85Q195.07 17.94 195.04 18Q194.89 18.3 194.77 18.63ZM190.09 24.21L189.88 22.71Q189.94 23.19 189.94 23.64Q189.97 24.09 190 24.48L190.09 25.92L190.12 25.77Q190.09 25.35 190.09 24.96L190.09 24.21ZM199.09 12.42L199.72 12.42Q199.18 12.27 198.7 12.27L198.37 12.27Q198.16 12.27 198.16 12.3L198.19 12.3Q198.67 12.42 199.09 12.42ZM195.49 18.81L195.28 19.29Q195.43 18.87 195.55 18.48Q195.7 18.09 195.79 17.94Q195.79 18 195.73 18.18Q195.67 18.39 195.49 18.81ZM201.79 13.68Q201.64 13.5 201.4 13.32Q201.22 13.2 201.07 13.11Q201.43 13.35 201.79 13.68ZM194.65 14.94Q194.59 15 194.56 15.12Q194.62 15.03 194.65 14.94ZM213.55 14.88L214.06 14.88Q215.8 14.88 217.51 15.51Q219.22 16.11 220.57 17.22Q221.92 18.33 222.73 19.89Q223.57 21.42 223.57 23.25Q223.57 25.2 223.03 26.52Q222.49 27.81 221.5 28.65Q220.51 29.49 219.13 29.97Q217.75 30.42 216.07 30.72Q217.12 30.63 218.41 30.33Q219.73 30.03 220.87 29.28Q222.04 28.5 222.82 27.15Q223.6 25.77 223.6 23.55Q223.6 20.82 222.07 18.63Q220.54 16.44 217.51 15.33Q216.76 15 215.95 14.82Q215.17 14.61 214.36 14.61Q214.63 14.46 215.08 14.46Q215.53 14.43 215.8 14.43Q216.97 14.43 218.2 14.91Q219.46 15.39 220.57 16.23Q221.68 17.07 222.52 18.21Q223.39 19.32 223.81 20.58Q223.66 20.64 223.54 20.82Q223.78 21.57 223.9 22.29Q224.02 23.01 224.02 23.76Q224.02 24.6 223.87 25.44Q223.75 26.28 223.33 27.09Q222.94 27.9 222.19 28.62Q221.47 29.34 220.27 29.91Q219.07 30.48 217.33 30.87Q215.59 31.23 213.19 31.35Q213.04 31.44 212.77 31.47Q212.5 31.47 212.23 31.47L211.81 31.47Q211.36 31.47 210.88 31.32Q210.4 31.14 210.01 30.75Q209.62 30.33 209.38 29.67Q209.14 28.98 209.14 27.96L209.14 27.63Q209.11 27.75 209.05 27.75Q208.96 27.75 208.96 27.69L208.96 27.84Q208.96 28.38 209.02 29.07Q209.08 29.73 209.35 30.33Q209.65 30.93 210.25 31.35Q210.88 31.74 212.02 31.74Q212.29 31.74 212.56 31.74Q212.86 31.71 213.19 31.62Q215.38 31.53 217.36 31.14Q219.37 30.75 220.9 29.88Q222.43 28.98 223.33 27.45Q224.23 25.92 224.23 23.52Q224.23 22.74 224.11 21.93Q224.14 22.26 224.2 22.56Q224.26 23.04 224.26 23.52Q224.26 24.18 224.17 25.02Q224.11 25.86 223.78 26.73Q223.48 27.6 222.88 28.44Q222.28 29.28 221.2 29.91Q220.09 30.57 218.89 30.96Q217.72 31.32 216.64 31.53Q215.59 31.71 214.72 31.77Q213.88 31.8 213.46 31.8L213.1 31.8Q212.83 31.8 212.53 31.86Q212.26 31.89 211.93 31.89L211.78 31.89Q211.51 31.89 211.09 31.83Q210.7 31.77 210.25 31.53Q209.83 31.29 209.47 30.78Q209.11 30.24 208.96 29.28Q208.9 28.95 208.87 28.62Q208.84 28.29 208.78 28.02Q208.78 27.42 208.87 26.91Q208.96 26.37 208.96 26.04L208.96 20.55L207.88 14.88Q207.91 14.28 207.94 13.56Q208 12.84 208.03 12.09Q208.09 11.31 208.12 10.56Q208.15 9.81 208.15 9.12Q208.15 8.88 208.12 8.67Q208.12 8.43 208.12 8.22Q208.21 8.31 208.3 8.31Q208.42 8.31 208.54 8.25Q208.69 8.16 208.81 8.16Q208.9 8.16 208.99 8.25Q209.08 8.34 209.14 8.58Q209.23 8.82 209.26 9.3Q209.29 9.75 209.29 10.47L209.56 10.47Q209.68 8.82 209.98 7.89Q210.31 6.96 210.64 6.96Q211.03 6.96 211.21 7.92Q211.39 8.88 211.45 10.35Q211.54 11.79 211.6 13.53Q211.66 15.24 211.84 16.77Q212.17 18.54 212.38 20.55Q212.59 22.53 212.65 24.42Q212.65 25.83 212.62 26.43Q212.59 27.03 212.53 27.3L212.53 28.11L213.55 28.02Q214.51 28.02 215.53 27.93Q216.55 27.81 217.24 27.57Q218.5 27.36 219.19 26.97Q219.91 26.55 220.27 26.07Q220.63 25.59 220.72 25.05Q220.81 24.51 220.81 24.03Q220.81 23.1 220.66 22.26Q220.54 21.39 220.15 20.67Q219.76 19.92 219.01 19.32Q218.26 18.69 217.06 18.21Q215.74 17.7 215.14 17.61Q214.57 17.52 214.57 17.25Q214.57 17.22 214.63 17.04Q215.89 17.1 217.15 17.64Q218.32 18.15 219.28 18.93Q218.35 18.15 217.21 17.64Q215.98 17.07 214.72 16.95Q214.81 16.83 214.81 16.65Q214.81 16.56 214.72 16.41L214.21 16.41Q214 16.41 213.76 16.44Q213.52 16.47 213.37 16.5Q212.65 16.44 212.35 16.29Q212.08 16.14 212.08 15.93Q212.08 15.63 212.56 15.33Q213.07 15.03 213.55 14.88ZM221.44 23.46Q221.44 24.84 221.11 25.71Q220.78 26.58 220.18 27.06Q220.96 26.52 221.2 25.68Q221.47 24.84 221.47 23.55Q221.47 23.34 221.44 23.16Q221.44 23.01 221.41 22.83Q221.41 23.01 221.41 23.16Q221.44 23.31 221.44 23.46ZM224.08 21.69L224.05 21.57L224.08 21.69ZM219.37 19.02Q219.31 18.99 219.28 18.93Q219.34 18.96 219.37 19.02ZM224.08 21.72Q224.08 21.78 224.08 21.81Q224.08 21.78 224.08 21.72Z" />
		<path id="Manana Amb " fill="#000000" aria-label="Manana Amb"  d="M26.05 19.86L24.07 18.84L24.01 18.75Q24.01 18.39 23.86 17.97Q23.74 17.55 23.56 17.13Q23.38 16.71 23.14 16.32Q22.93 15.9 22.75 15.54L22.54 15.42Q22.93 16.35 23.35 17.1Q23.77 17.85 23.77 18.69L23.92 18.87L23.65 18.75L23.65 18.57Q23.11 17.52 22.6 16.29Q22.12 15.03 21.61 13.98Q21.31 15.99 20.86 18Q20.41 20.01 19.72 21.9Q19.12 23.52 18.28 25.02Q17.44 26.49 16.87 28.14L16.63 27.96L16.3 28.02Q16.03 27.96 16.03 27.66Q16.03 27.42 16.12 27.09Q16.21 26.73 16.33 26.37Q16.48 26.01 16.63 25.68Q16.78 25.32 16.87 25.11L16.6 25.02Q16.51 25.2 16.15 25.83Q15.82 26.46 15.4 27.12Q15.01 27.78 14.62 28.32Q14.23 28.86 14.02 28.86Q13.87 28.77 13.81 28.59Q13.75 28.38 13.75 28.23Q13.75 27.36 14.14 25.98Q14.56 24.6 15.1 23.13Q15.64 21.63 16.18 20.22Q16.75 18.81 17.05 17.85Q17.32 17.01 17.53 16.05Q17.77 15.06 17.92 14.07Q18.1 13.05 18.22 12.06Q18.34 11.07 18.43 10.17Q18.94 9.78 19.81 9.51Q20.71 9.24 21.46 8.94Q23.08 10.26 24.25 11.97Q25.42 13.68 26.29 15.84Q26.83 15.03 27.28 14.04Q27.76 13.05 28.15 12Q28.54 10.92 28.9 9.87Q29.26 8.82 29.62 7.92Q30.37 7.68 31.18 7.56Q32.02 7.44 32.83 7.29Q33.64 8.97 34.36 10.5Q35.08 12.03 35.68 13.59Q36.31 15.12 36.79 16.74Q37.3 18.36 37.69 20.22Q37.87 21.18 38.14 22.17Q38.41 23.13 38.62 24.12Q38.86 25.11 39.01 26.1Q39.19 27.09 39.19 28.08Q39.19 28.17 39.1 28.32Q39.04 28.47 38.8 28.5Q38.32 25.68 37.75 22.92Q37.18 20.22 36.34 17.55Q37.09 20.22 37.63 22.86Q38.2 25.59 38.62 28.41L38.2 28.65Q38.26 29.01 38.35 29.4Q38.44 29.79 38.44 30.15Q38.44 30.24 38.41 30.54Q38.41 30.81 38.35 31.11Q38.32 31.41 38.2 31.65Q38.11 31.86 37.93 31.86Q37.75 31.86 37.54 31.65Q37.36 31.41 37.18 31.11Q37.03 30.78 36.88 30.51Q36.76 30.21 36.7 30.06Q36.52 28.08 36.07 25.65Q35.65 23.19 35.05 20.7Q34.45 18.18 33.67 15.84Q32.92 13.47 32.08 11.67L32.05 11.82Q33.01 13.86 33.7 16.02Q34.39 18.15 34.9 20.37Q35.41 22.56 35.77 24.81Q36.13 27.03 36.4 29.22Q35.77 27.84 35.38 26.43Q35.02 24.99 34.72 23.58Q34.45 22.14 34.15 20.7Q33.88 19.26 33.46 17.79L33.67 17.19Q33.25 15.96 32.8 14.76Q32.38 13.56 31.81 12.42L31.69 12.72Q31.36 13.62 30.85 14.82Q30.34 16.02 29.65 17.16Q28.96 18.3 28.09 19.2Q27.25 20.1 26.23 20.4Q25.6 20.01 24.94 19.68Q24.31 19.32 23.65 18.96L23.65 18.78L24.85 19.44Q25.45 19.77 26.05 20.13L26.29 20.07Q27.58 19.32 28.36 18.57Q29.17 17.82 29.74 16.92Q30.31 16.02 30.73 14.91Q31.18 13.77 31.75 12.33L31.63 12.06L31.51 12.33L31 13.5Q30.7 14.22 30.25 15.06Q29.83 15.87 29.29 16.74Q28.78 17.58 28.24 18.3Q27.7 18.99 27.13 19.44Q26.56 19.86 26.05 19.86ZM34.3 11.64L34.39 11.58Q34.33 11.4 34.18 11.1Q34.03 10.77 33.85 10.44Q33.7 10.11 33.55 9.81Q33.4 9.48 33.31 9.33L33.64 10.26L34.3 11.64ZM31.27 11.88L31.24 11.7L30.22 14.4Q30.52 13.77 30.76 13.14Q31.03 12.51 31.27 11.88ZM30.64 8.94L30.46 8.94L30.85 9.93L31 9.9L30.64 8.94ZM18.94 10.5L18.73 10.56L18.67 11.46Q18.67 11.76 18.61 12.27L18.94 10.5ZM29.65 9.33L28.99 11.19L29.77 9.33L29.65 9.33ZM32.59 8.34L33.22 9.15L32.53 8.01L32.59 8.34ZM32.02 11.55L31.93 11.34L31.87 11.46L31.99 11.7L32.02 11.55ZM51.97 22.14Q51.16 22.14 50.74 22.11Q50.35 22.08 50.02 22.08Q49.12 22.08 48.43 22.17Q47.74 22.26 47.26 22.53Q46.78 22.8 46.54 23.31Q46.3 23.82 46.3 24.66Q46.3 25.89 46.57 26.49Q46.87 27.06 47.38 27.33Q47.92 27.57 48.67 27.63Q49.42 27.69 50.35 27.9Q50.89 27.96 51.43 27.99Q51.97 27.99 52.51 27.99L54.67 27.99Q53.17 27.9 51.67 27.9Q50.2 27.87 49 27.63Q47.83 27.39 47.08 26.79Q46.36 26.19 46.36 24.96Q46.36 23.97 46.6 23.46Q46.87 22.92 47.29 22.68Q47.74 22.41 48.34 22.38Q48.94 22.32 49.63 22.32Q50.47 22.32 51.34 22.41Q50.65 22.62 49.93 22.74Q49.24 22.83 48.64 22.95Q48.04 23.04 47.59 23.22Q47.17 23.37 47.02 23.67L47.02 25.02L46.78 25.14Q46.9 25.89 46.99 26.28Q47.11 26.64 47.59 26.85Q48.07 27.03 49.12 27.15Q50.2 27.27 52.24 27.54L54.4 27.54Q54.97 27.54 55.06 27.51Q55.18 27.45 55.21 27.45L54.94 25.83Q54.88 25.23 54.79 24.75Q54.7 24.27 54.55 23.73Q54.52 23.82 54.37 23.82Q54.52 24.33 54.61 24.9Q54.73 25.47 54.79 25.98Q54.88 26.49 54.91 26.85Q54.97 27.21 55.03 27.27L54.85 27.33Q54.79 27.36 54.67 27.36L54.49 27.36Q54.28 27.36 54.01 27.33Q53.74 27.27 53.32 27.27L52.33 27.27Q51.16 27.27 50.17 27.15Q49.24 27.03 48.55 26.85Q49.24 27 50.23 27.09Q51.28 27.21 52.18 27.21Q52.57 27.21 52.99 27.21Q53.44 27.18 53.95 27.18L54.94 27.18Q54.85 27.09 54.73 27.09L54.67 27.09Q54.55 25.02 54.13 23.13Q53.71 21.24 52.78 19.83Q51.85 18.39 50.35 17.55Q48.85 16.68 46.6 16.68Q45.97 16.68 45.34 16.77Q44.71 16.86 44.05 17.01Q44.11 16.95 44.11 16.89Q44.11 16.74 43.99 16.62Q43.87 16.47 43.87 16.32Q43.87 16.14 44.23 15.99Q44.62 15.81 45.85 15.66Q45.79 15.6 45.76 15.48Q45.76 15.36 45.76 15.3Q44.14 15.3 43.24 15.24Q42.34 15.15 42.34 14.79Q42.34 14.64 42.7 14.37Q43.09 14.1 43.78 13.86Q44.47 13.59 45.43 13.41Q46.42 13.2 47.62 13.2Q49.93 13.2 51.58 13.92Q53.23 14.61 54.34 15.78Q55.48 16.92 56.17 18.39Q56.89 19.86 57.31 21.36Q57.76 22.83 57.97 24.24Q58.18 25.62 58.36 26.64Q58.36 26.82 58.36 27Q58.39 27.18 58.39 27.42Q58.39 28.29 58.06 28.95Q57.76 29.58 57.19 30.03Q56.65 30.45 55.9 30.69Q55.18 30.9 54.34 30.9Q53.68 30.9 52.63 30.87Q51.58 30.84 50.62 30.69Q49.99 30.54 49.24 30.48Q48.49 30.39 47.71 30.21Q46.93 30.03 46.18 29.7Q45.46 29.37 44.86 28.71Q44.29 28.02 43.93 26.94Q43.6 25.86 43.6 24.21Q43.6 22.65 44.32 21.72Q45.04 20.76 46.03 20.25Q47.05 19.71 48.1 19.56Q49.15 19.38 49.81 19.38Q50.65 19.38 50.92 19.5Q51.19 19.62 51.19 19.74Q51.19 19.83 51.16 19.89Q50.41 19.89 49.24 19.95Q48.07 20.01 46.96 20.34Q45.88 20.67 45.1 21.36Q44.32 22.02 44.32 23.25Q44.59 22.14 45.22 21.51Q45.88 20.85 46.72 20.55Q47.56 20.22 48.43 20.16Q49.33 20.07 50.05 20.07L51.07 20.07Q50.95 20.19 50.95 20.31Q50.95 20.43 51.07 20.52L52.24 20.52Q52.72 20.61 52.93 20.85Q53.14 21.06 53.14 21.24Q53.14 21.51 52.87 21.72Q52.6 21.93 51.97 22.14ZM46.93 29.4Q47.77 29.73 48.64 29.91Q49.54 30.09 50.41 30.15Q51.28 30.24 52.03 30.24Q51.43 30.18 50.83 30.03Q50.2 29.88 49.72 29.76Q49.21 29.64 48.7 29.61Q48.22 29.55 47.68 29.46Q47.17 29.37 46.63 29.19Q46.09 28.98 45.55 28.59Q46.12 29.1 46.93 29.4ZM47.11 26.19L47.23 26.25Q47.2 26.22 47.41 26.43Q47.59 26.61 47.89 26.7Q47.74 26.64 47.44 26.55Q47.11 26.43 47.11 26.19ZM47.98 26.7Q47.95 26.7 47.89 26.7Q47.92 26.7 47.98 26.7ZM62.14 28.08Q62.14 27.93 62.23 27.72Q62.32 27.51 62.32 27.27Q62.41 26.55 62.44 26.25Q62.47 25.92 62.47 25.68Q62.47 24.42 62.38 22.98Q62.32 21.51 62.23 20.16Q62.23 19.74 62.2 19.17Q62.2 18.6 62.14 18.27Q62.23 17.22 62.29 16.2Q62.35 15.18 62.35 14.13L62.35 13.38Q62.35 12.99 62.32 12.6Q62.41 12.69 62.5 12.69Q62.62 12.69 62.74 12.6Q62.89 12.51 63.01 12.51Q63.22 12.51 63.34 12.96Q63.49 13.41 63.49 14.94L63.76 14.94Q63.91 13.26 64.21 12.27Q64.54 11.28 64.87 11.28Q65.02 11.28 65.35 11.94Q65.68 12.57 65.68 13.95L66.01 13.41Q66.34 13.02 66.73 12.6Q67.15 12.18 67.66 11.85Q68.17 11.52 68.8 11.31Q69.43 11.07 70.24 11.07Q71.8 11.07 72.94 11.79Q74.11 12.48 74.89 13.62Q75.67 14.73 76.15 16.17Q76.66 17.58 76.93 19.05Q77.2 20.49 77.29 21.84Q77.38 23.19 77.38 24.15Q77.38 25.02 77.26 25.2Q77.17 25.35 76.9 25.38Q76.84 23.07 76.6 20.67Q76.36 18.27 75.46 16.02Q76.27 18.39 76.48 20.7Q76.72 22.98 76.72 25.29Q76.54 25.2 76.39 25.2Q76.27 25.2 76.18 25.29Q76.18 25.53 76.21 25.8Q76.24 26.04 76.24 26.28Q76.27 26.52 76.27 26.73Q76.09 27.42 75.91 27.72Q75.73 28.02 75.58 28.02Q75.4 28.02 75.28 27.87Q75.16 27.69 75.04 27.45Q74.95 27.21 74.83 26.94Q74.74 26.64 74.56 26.37Q74.62 25.86 74.65 25.56Q74.68 25.23 74.68 25.02Q74.68 24.21 74.65 23.07Q74.62 21.93 74.47 20.7Q74.35 19.44 74.05 18.21Q73.78 16.95 73.27 15.99Q72.79 15 72.04 14.4Q71.29 13.77 70.24 13.77Q69.52 13.77 68.95 14.25Q68.41 14.73 67.99 15.48Q67.6 16.23 67.3 17.13Q67 18 66.82 18.81Q67.09 17.97 67.36 17.1Q67.66 16.23 68.05 15.51Q68.47 14.79 69.01 14.34Q69.55 13.86 70.27 13.86Q71.2 13.86 71.86 14.37Q72.55 14.88 73 15.69Q73.48 16.5 73.75 17.55Q74.05 18.57 74.2 19.65Q74.35 20.7 74.38 21.72Q74.44 22.71 74.44 23.43Q74.44 24 74.41 24.57Q74.41 25.14 74.38 25.74Q74.11 24.6 73.96 23.37Q73.84 22.11 73.69 20.91Q73.54 19.68 73.3 18.57Q73.09 17.43 72.67 16.47L72.88 16.17Q72.58 15.48 72.19 15.12Q71.83 14.73 71.47 14.55Q71.11 14.37 70.81 14.34Q70.51 14.31 70.42 14.31Q69.67 14.31 69.07 14.85Q68.5 15.39 68.05 16.32Q67.63 17.22 67.3 18.42Q66.97 19.62 66.73 20.94Q66.49 22.26 66.31 23.61Q66.13 24.93 66.01 26.1L66.28 26.1Q66.43 25.08 66.58 23.85Q66.76 22.62 66.94 21.36Q67.15 20.07 67.42 18.87Q67.69 17.67 68.05 16.71Q68.44 15.75 68.95 15.15Q69.43 14.58 70.12 14.49Q69.46 14.64 69.01 15.33Q68.53 16.05 68.17 17.1Q67.81 18.15 67.51 19.41Q67.24 20.64 67 21.78L66.4 26.16Q66.28 26.58 66.22 26.91L66.1 27.54Q66.04 27.84 65.98 28.2Q65.92 28.53 65.83 28.98L65.74 29.34L65.56 29.34L62.53 28.32Q62.38 28.29 62.29 28.23Q62.23 28.17 62.14 28.08ZM67.36 12.69Q66.76 13.2 66.4 13.8Q66.07 14.37 65.77 14.97L65.77 15Q66.19 14.13 66.94 13.23Q67.66 12.39 68.86 11.97Q68.47 12.09 68.11 12.21Q67.69 12.36 67.36 12.69ZM70.96 11.7Q70.81 11.67 70.54 11.67Q71.5 11.91 72.34 12.21Q73.18 12.48 73.93 13.32Q73.42 12.63 72.58 12.24Q71.77 11.85 70.96 11.7ZM72.07 15.39L71.77 15.12Q71.53 14.94 71.2 14.85Q70.9 14.73 70.45 14.55L70.42 14.49Q70.93 14.52 71.32 14.73Q71.71 14.91 72.07 15.39ZM73.99 13.38Q74.41 13.89 74.77 14.55Q75.13 15.21 75.4 15.72Q75.1 15.03 74.83 14.46Q74.56 13.89 73.99 13.38ZM90.91 22.14Q90.1 22.14 89.68 22.11Q89.29 22.08 88.96 22.08Q88.06 22.08 87.37 22.17Q86.68 22.26 86.2 22.53Q85.72 22.8 85.48 23.31Q85.24 23.82 85.24 24.66Q85.24 25.89 85.51 26.49Q85.81 27.06 86.32 27.33Q86.86 27.57 87.61 27.63Q88.36 27.69 89.29 27.9Q89.83 27.96 90.37 27.99Q90.91 27.99 91.45 27.99L93.61 27.99Q92.11 27.9 90.61 27.9Q89.14 27.87 87.94 27.63Q86.77 27.39 86.02 26.79Q85.3 26.19 85.3 24.96Q85.3 23.97 85.54 23.46Q85.81 22.92 86.23 22.68Q86.68 22.41 87.28 22.38Q87.88 22.32 88.57 22.32Q89.41 22.32 90.28 22.41Q89.59 22.62 88.87 22.74Q88.18 22.83 87.58 22.95Q86.98 23.04 86.53 23.22Q86.11 23.37 85.96 23.67L85.96 25.02L85.72 25.14Q85.84 25.89 85.93 26.28Q86.05 26.64 86.53 26.85Q87.01 27.03 88.06 27.15Q89.14 27.27 91.18 27.54L93.34 27.54Q93.91 27.54 94 27.51Q94.12 27.45 94.15 27.45L93.88 25.83Q93.82 25.23 93.73 24.75Q93.64 24.27 93.49 23.73Q93.46 23.82 93.31 23.82Q93.46 24.33 93.55 24.9Q93.67 25.47 93.73 25.98Q93.82 26.49 93.85 26.85Q93.91 27.21 93.97 27.27L93.79 27.33Q93.73 27.36 93.61 27.36L93.43 27.36Q93.22 27.36 92.95 27.33Q92.68 27.27 92.26 27.27L91.27 27.27Q90.1 27.27 89.11 27.15Q88.18 27.03 87.49 26.85Q88.18 27 89.17 27.09Q90.22 27.21 91.12 27.21Q91.51 27.21 91.93 27.21Q92.38 27.18 92.89 27.18L93.88 27.18Q93.79 27.09 93.67 27.09L93.61 27.09Q93.49 25.02 93.07 23.13Q92.65 21.24 91.72 19.83Q90.79 18.39 89.29 17.55Q87.79 16.68 85.54 16.68Q84.91 16.68 84.28 16.77Q83.65 16.86 82.99 17.01Q83.05 16.95 83.05 16.89Q83.05 16.74 82.93 16.62Q82.81 16.47 82.81 16.32Q82.81 16.14 83.17 15.99Q83.56 15.81 84.79 15.66Q84.73 15.6 84.7 15.48Q84.7 15.36 84.7 15.3Q83.08 15.3 82.18 15.24Q81.28 15.15 81.28 14.79Q81.28 14.64 81.64 14.37Q82.03 14.1 82.72 13.86Q83.41 13.59 84.37 13.41Q85.36 13.2 86.56 13.2Q88.87 13.2 90.52 13.92Q92.17 14.61 93.28 15.78Q94.42 16.92 95.11 18.39Q95.83 19.86 96.25 21.36Q96.7 22.83 96.91 24.24Q97.12 25.62 97.3 26.64Q97.3 26.82 97.3 27Q97.33 27.18 97.33 27.42Q97.33 28.29 97 28.95Q96.7 29.58 96.13 30.03Q95.59 30.45 94.84 30.69Q94.12 30.9 93.28 30.9Q92.62 30.9 91.57 30.87Q90.52 30.84 89.56 30.69Q88.93 30.54 88.18 30.48Q87.43 30.39 86.65 30.21Q85.87 30.03 85.12 29.7Q84.4 29.37 83.8 28.71Q83.23 28.02 82.87 26.94Q82.54 25.86 82.54 24.21Q82.54 22.65 83.26 21.72Q83.98 20.76 84.97 20.25Q85.99 19.71 87.04 19.56Q88.09 19.38 88.75 19.38Q89.59 19.38 89.86 19.5Q90.13 19.62 90.13 19.74Q90.13 19.83 90.1 19.89Q89.35 19.89 88.18 19.95Q87.01 20.01 85.9 20.34Q84.82 20.67 84.04 21.36Q83.26 22.02 83.26 23.25Q83.53 22.14 84.16 21.51Q84.82 20.85 85.66 20.55Q86.5 20.22 87.37 20.16Q88.27 20.07 88.99 20.07L90.01 20.07Q89.89 20.19 89.89 20.31Q89.89 20.43 90.01 20.52L91.18 20.52Q91.66 20.61 91.87 20.85Q92.08 21.06 92.08 21.24Q92.08 21.51 91.81 21.72Q91.54 21.93 90.91 22.14ZM85.87 29.4Q86.71 29.73 87.58 29.91Q88.48 30.09 89.35 30.15Q90.22 30.24 90.97 30.24Q90.37 30.18 89.77 30.03Q89.14 29.88 88.66 29.76Q88.15 29.64 87.64 29.61Q87.16 29.55 86.62 29.46Q86.11 29.37 85.57 29.19Q85.03 28.98 84.49 28.59Q85.06 29.1 85.87 29.4ZM86.05 26.19L86.17 26.25Q86.14 26.22 86.35 26.43Q86.53 26.61 86.83 26.7Q86.68 26.64 86.38 26.55Q86.05 26.43 86.05 26.19ZM86.92 26.7Q86.89 26.7 86.83 26.7Q86.86 26.7 86.92 26.7ZM101.08 28.08Q101.08 27.93 101.17 27.72Q101.26 27.51 101.26 27.27Q101.35 26.55 101.38 26.25Q101.41 25.92 101.41 25.68Q101.41 24.42 101.32 22.98Q101.26 21.51 101.17 20.16Q101.17 19.74 101.14 19.17Q101.14 18.6 101.08 18.27Q101.17 17.22 101.23 16.2Q101.29 15.18 101.29 14.13L101.29 13.38Q101.29 12.99 101.26 12.6Q101.35 12.69 101.44 12.69Q101.56 12.69 101.68 12.6Q101.83 12.51 101.95 12.51Q102.16 12.51 102.28 12.96Q102.43 13.41 102.43 14.94L102.7 14.94Q102.85 13.26 103.15 12.27Q103.48 11.28 103.81 11.28Q103.96 11.28 104.29 11.94Q104.62 12.57 104.62 13.95L104.95 13.41Q105.28 13.02 105.67 12.6Q106.09 12.18 106.6 11.85Q107.11 11.52 107.74 11.31Q108.37 11.07 109.18 11.07Q110.74 11.07 111.88 11.79Q113.05 12.48 113.83 13.62Q114.61 14.73 115.09 16.17Q115.6 17.58 115.87 19.05Q116.14 20.49 116.23 21.84Q116.32 23.19 116.32 24.15Q116.32 25.02 116.2 25.2Q116.11 25.35 115.84 25.38Q115.78 23.07 115.54 20.67Q115.3 18.27 114.4 16.02Q115.21 18.39 115.42 20.7Q115.66 22.98 115.66 25.29Q115.48 25.2 115.33 25.2Q115.21 25.2 115.12 25.29Q115.12 25.53 115.15 25.8Q115.18 26.04 115.18 26.28Q115.21 26.52 115.21 26.73Q115.03 27.42 114.85 27.72Q114.67 28.02 114.52 28.02Q114.34 28.02 114.22 27.87Q114.1 27.69 113.98 27.45Q113.89 27.21 113.77 26.94Q113.68 26.64 113.5 26.37Q113.56 25.86 113.59 25.56Q113.62 25.23 113.62 25.02Q113.62 24.21 113.59 23.07Q113.56 21.93 113.41 20.7Q113.29 19.44 112.99 18.21Q112.72 16.95 112.21 15.99Q111.73 15 110.98 14.4Q110.23 13.77 109.18 13.77Q108.46 13.77 107.89 14.25Q107.35 14.73 106.93 15.48Q106.54 16.23 106.24 17.13Q105.94 18 105.76 18.81Q106.03 17.97 106.3 17.1Q106.6 16.23 106.99 15.51Q107.41 14.79 107.95 14.34Q108.49 13.86 109.21 13.86Q110.14 13.86 110.8 14.37Q111.49 14.88 111.94 15.69Q112.42 16.5 112.69 17.55Q112.99 18.57 113.14 19.65Q113.29 20.7 113.32 21.72Q113.38 22.71 113.38 23.43Q113.38 24 113.35 24.57Q113.35 25.14 113.32 25.74Q113.05 24.6 112.9 23.37Q112.78 22.11 112.63 20.91Q112.48 19.68 112.24 18.57Q112.03 17.43 111.61 16.47L111.82 16.17Q111.52 15.48 111.13 15.12Q110.77 14.73 110.41 14.55Q110.05 14.37 109.75 14.34Q109.45 14.31 109.36 14.31Q108.61 14.31 108.01 14.85Q107.44 15.39 106.99 16.32Q106.57 17.22 106.24 18.42Q105.91 19.62 105.67 20.94Q105.43 22.26 105.25 23.61Q105.07 24.93 104.95 26.1L105.22 26.1Q105.37 25.08 105.52 23.85Q105.7 22.62 105.88 21.36Q106.09 20.07 106.36 18.87Q106.63 17.67 106.99 16.71Q107.38 15.75 107.89 15.15Q108.37 14.58 109.06 14.49Q108.4 14.64 107.95 15.33Q107.47 16.05 107.11 17.1Q106.75 18.15 106.45 19.41Q106.18 20.64 105.94 21.78L105.34 26.16Q105.22 26.58 105.16 26.91L105.04 27.54Q104.98 27.84 104.92 28.2Q104.86 28.53 104.77 28.98L104.68 29.34L104.5 29.34L101.47 28.32Q101.32 28.29 101.23 28.23Q101.17 28.17 101.08 28.08ZM106.3 12.69Q105.7 13.2 105.34 13.8Q105.01 14.37 104.71 14.97L104.71 15Q105.13 14.13 105.88 13.23Q106.6 12.39 107.8 11.97Q107.41 12.09 107.05 12.21Q106.63 12.36 106.3 12.69ZM109.9 11.7Q109.75 11.67 109.48 11.67Q110.44 11.91 111.28 12.21Q112.12 12.48 112.87 13.32Q112.36 12.63 111.52 12.24Q110.71 11.85 109.9 11.7ZM111.01 15.39L110.71 15.12Q110.47 14.94 110.14 14.85Q109.84 14.73 109.39 14.55L109.36 14.49Q109.87 14.52 110.26 14.73Q110.65 14.91 111.01 15.39ZM112.93 13.38Q113.35 13.89 113.71 14.55Q114.07 15.21 114.34 15.72Q114.04 15.03 113.77 14.46Q113.5 13.89 112.93 13.38ZM129.85 22.14Q129.04 22.14 128.62 22.11Q128.23 22.08 127.9 22.08Q127 22.08 126.31 22.17Q125.62 22.26 125.14 22.53Q124.66 22.8 124.42 23.31Q124.18 23.82 124.18 24.66Q124.18 25.89 124.45 26.49Q124.75 27.06 125.26 27.33Q125.8 27.57 126.55 27.63Q127.3 27.69 128.23 27.9Q128.77 27.96 129.31 27.99Q129.85 27.99 130.39 27.99L132.55 27.99Q131.05 27.9 129.55 27.9Q128.08 27.87 126.88 27.63Q125.71 27.39 124.96 26.79Q124.24 26.19 124.24 24.96Q124.24 23.97 124.48 23.46Q124.75 22.92 125.17 22.68Q125.62 22.41 126.22 22.38Q126.82 22.32 127.51 22.32Q128.35 22.32 129.22 22.41Q128.53 22.62 127.81 22.74Q127.12 22.83 126.52 22.95Q125.92 23.04 125.47 23.22Q125.05 23.37 124.9 23.67L124.9 25.02L124.66 25.14Q124.78 25.89 124.87 26.28Q124.99 26.64 125.47 26.85Q125.95 27.03 127 27.15Q128.08 27.27 130.12 27.54L132.28 27.54Q132.85 27.54 132.94 27.51Q133.06 27.45 133.09 27.45L132.82 25.83Q132.76 25.23 132.67 24.75Q132.58 24.27 132.43 23.73Q132.4 23.82 132.25 23.82Q132.4 24.33 132.49 24.9Q132.61 25.47 132.67 25.98Q132.76 26.49 132.79 26.85Q132.85 27.21 132.91 27.27L132.73 27.33Q132.67 27.36 132.55 27.36L132.37 27.36Q132.16 27.36 131.89 27.33Q131.62 27.27 131.2 27.27L130.21 27.27Q129.04 27.27 128.05 27.15Q127.12 27.03 126.43 26.85Q127.12 27 128.11 27.09Q129.16 27.21 130.06 27.21Q130.45 27.21 130.87 27.21Q131.32 27.18 131.83 27.18L132.82 27.18Q132.73 27.09 132.61 27.09L132.55 27.09Q132.43 25.02 132.01 23.13Q131.59 21.24 130.66 19.83Q129.73 18.39 128.23 17.55Q126.73 16.68 124.48 16.68Q123.85 16.68 123.22 16.77Q122.59 16.86 121.93 17.01Q121.99 16.95 121.99 16.89Q121.99 16.74 121.87 16.62Q121.75 16.47 121.75 16.32Q121.75 16.14 122.11 15.99Q122.5 15.81 123.73 15.66Q123.67 15.6 123.64 15.48Q123.64 15.36 123.64 15.3Q122.02 15.3 121.12 15.24Q120.22 15.15 120.22 14.79Q120.22 14.64 120.58 14.37Q120.97 14.1 121.66 13.86Q122.35 13.59 123.31 13.41Q124.3 13.2 125.5 13.2Q127.81 13.2 129.46 13.92Q131.11 14.61 132.22 15.78Q133.36 16.92 134.05 18.39Q134.77 19.86 135.19 21.36Q135.64 22.83 135.85 24.24Q136.06 25.62 136.24 26.64Q136.24 26.82 136.24 27Q136.27 27.18 136.27 27.42Q136.27 28.29 135.94 28.95Q135.64 29.58 135.07 30.03Q134.53 30.45 133.78 30.69Q133.06 30.9 132.22 30.9Q131.56 30.9 130.51 30.87Q129.46 30.84 128.5 30.69Q127.87 30.54 127.12 30.48Q126.37 30.39 125.59 30.21Q124.81 30.03 124.06 29.7Q123.34 29.37 122.74 28.71Q122.17 28.02 121.81 26.94Q121.48 25.86 121.48 24.21Q121.48 22.65 122.2 21.72Q122.92 20.76 123.91 20.25Q124.93 19.71 125.98 19.56Q127.03 19.38 127.69 19.38Q128.53 19.38 128.8 19.5Q129.07 19.62 129.07 19.74Q129.07 19.83 129.04 19.89Q128.29 19.89 127.12 19.95Q125.95 20.01 124.84 20.34Q123.76 20.67 122.98 21.36Q122.2 22.02 122.2 23.25Q122.47 22.14 123.1 21.51Q123.76 20.85 124.6 20.55Q125.44 20.22 126.31 20.16Q127.21 20.07 127.93 20.07L128.95 20.07Q128.83 20.19 128.83 20.31Q128.83 20.43 128.95 20.52L130.12 20.52Q130.6 20.61 130.81 20.85Q131.02 21.06 131.02 21.24Q131.02 21.51 130.75 21.72Q130.48 21.93 129.85 22.14ZM124.81 29.4Q125.65 29.73 126.52 29.91Q127.42 30.09 128.29 30.15Q129.16 30.24 129.91 30.24Q129.31 30.18 128.71 30.03Q128.08 29.88 127.6 29.76Q127.09 29.64 126.58 29.61Q126.1 29.55 125.56 29.46Q125.05 29.37 124.51 29.19Q123.97 28.98 123.43 28.59Q124 29.1 124.81 29.4ZM124.99 26.19L125.11 26.25Q125.08 26.22 125.29 26.43Q125.47 26.61 125.77 26.7Q125.62 26.64 125.32 26.55Q124.99 26.43 124.99 26.19ZM125.86 26.7Q125.83 26.7 125.77 26.7Q125.8 26.7 125.86 26.7ZM165.67 24.84L165.4 25.11L165.22 25.02Q163.96 24.69 162.55 24.6Q161.14 24.51 159.67 24.21Q161.11 24.51 162.49 24.69Q163.87 24.84 165.22 25.29Q164.8 25.56 164.32 25.56Q163.75 25.5 163.18 25.38Q162.64 25.26 162.01 25.2Q162.01 25.02 162.1 24.93Q161.23 24.93 160.36 24.75Q159.52 24.57 158.71 24.36Q157.9 24.12 157.12 23.94Q156.37 23.73 155.71 23.73Q155.71 23.82 155.68 23.82Q156.46 23.97 157.15 24.24Q157.84 24.51 158.71 24.66Q159.55 24.87 160.33 24.96Q161.14 25.05 161.92 25.2Q160.66 25.08 159.34 24.84Q158.05 24.6 156.79 24.3L155.38 23.94Q154.63 25.86 153.85 27.72Q153.1 29.55 152.38 31.44Q152.32 31.32 152.17 31.32Q152.05 31.29 151.9 31.29Q151.78 31.29 151.66 31.23Q151.54 31.14 151.54 30.9Q151.54 30.66 151.66 30.24Q151.78 29.79 152.11 29.07Q152.05 29.01 151.9 29.01Q151.78 28.98 151.72 28.98Q151.12 30.24 150.55 30.93Q150.01 31.59 149.68 31.59Q149.32 31.59 149.32 30.9Q149.32 30.33 149.53 29.46Q149.74 28.56 150.04 27.54Q150.37 26.52 150.76 25.44Q151.15 24.33 151.51 23.28Q151.18 23.07 150.79 22.98Q150.43 22.89 149.98 22.83Q150.07 22.71 150.07 22.53Q150.07 22.35 150.1 22.17Q150.13 21.99 150.22 21.87Q150.31 21.75 150.55 21.75Q150.61 21.75 150.91 21.81L150.91 21.54Q150.43 21.3 150.16 20.97Q149.92 20.64 149.92 20.31Q149.92 19.59 151.3 19.59Q151.69 19.59 152.08 19.65Q152.5 19.68 152.92 19.74L154.3 16.59Q154.75 15.57 155.26 14.49Q155.8 13.41 156.52 12.36Q157.24 11.31 158.14 10.38Q159.07 9.42 160.27 8.67L160.72 8.49Q161.56 8.7 162.07 8.85Q162.61 8.97 162.94 9.03Q163.24 9.15 163.42 9.18L163.39 9.18L163.42 9.27Q163.42 9.3 163.39 9.33L163.75 9.96Q165.7 13.23 167.05 16.74Q168.4 20.25 169.36 23.64Q169.6 24.39 169.93 25.26Q170.29 26.1 170.59 26.88Q170.92 27.63 171.13 28.26Q171.34 28.86 171.34 29.13Q171.34 29.34 171.25 29.4Q171.16 29.43 171.01 29.43Q170.23 27.48 169.54 25.59Q168.85 23.73 168.19 21.84Q168.79 23.73 169.45 25.59Q170.14 27.48 170.83 29.43L170.62 29.43Q170.44 29.43 170.38 29.61Q170.44 29.67 170.53 29.94Q170.62 30.18 170.71 30.48Q170.8 30.75 170.86 31.05Q170.92 31.35 170.92 31.5Q170.92 32.16 170.53 32.16Q170.32 32.16 170.2 32.07Q170.08 31.98 169.93 31.83L169.63 31.53Q169.45 31.35 169.18 31.17L166.3 22.89Q166.93 24.84 167.53 26.79Q168.16 28.74 168.82 30.63Q168.34 30.06 167.92 29.25Q167.53 28.44 167.17 27.54Q166.84 26.64 166.54 25.71Q166.24 24.75 165.94 23.91Q165.94 23.97 165.94 24.03Q165.97 24.06 165.97 24.12Q165.97 24.6 165.67 24.84ZM165.82 23.58L165.22 21.99Q165.28 21.99 165.4 21.96Q165.52 21.9 165.58 21.9Q164.59 19.41 163.6 17.07Q162.64 14.73 161.47 12.57L161.29 12.75L161.74 13.56Q162.79 15.48 163.63 17.52Q164.47 19.56 165.22 21.72Q164.35 19.38 163.33 17.07Q162.34 14.73 161.2 12.84L161.08 12.9Q160.06 13.95 159.16 15.42Q158.29 16.89 157.51 18.42L156.73 20.31L157.24 20.43Q157.69 20.55 158.11 20.7Q158.56 20.82 158.89 20.97Q159.55 21.3 160.63 21.48Q161.71 21.66 162.73 21.84Q163.78 21.99 164.53 22.2Q165.31 22.38 165.31 22.74L161.65 22.32Q161.98 22.38 162.46 22.47Q162.94 22.53 163.42 22.62Q163.93 22.71 164.41 22.8Q164.89 22.86 165.22 22.92Q165.22 23.01 165.19 23.1Q165.19 23.16 165.19 23.22Q165.19 23.28 165.25 23.31Q165.34 23.31 165.43 23.34Q165.55 23.34 165.64 23.4Q165.73 23.43 165.82 23.58ZM158.71 15.57Q158.77 15.57 158.74 15.66Q158.74 15.72 158.77 15.72Q158.83 15.72 159.13 15.3Q159.43 14.88 159.82 14.34Q160.21 13.8 160.57 13.32Q160.93 12.84 161.08 12.69L160.93 12.48Q160.3 13.08 159.76 13.89Q159.22 14.7 158.71 15.57ZM161.77 12.33L161.74 12.33Q162.7 13.95 163.51 15.72Q164.29 17.46 164.98 19.2Q164.41 17.46 163.6 15.72Q162.76 13.95 161.77 12.33ZM166.33 16.83Q167.26 19.23 168.16 21.72Q167.32 19.29 166.39 16.92Q165.52 14.58 164.38 12.21Q165.46 14.49 166.33 16.83ZM162.04 11.52L161.92 11.67Q162.31 11.76 162.46 11.85Q162.61 11.94 162.67 11.94L162.7 11.85Q162.73 11.85 162.58 11.82Q162.43 11.79 162.34 11.76L162.4 11.64L162.04 11.52ZM160.39 11.31L160.45 11.37L160.69 12L160.66 11.37Q160.6 11.37 160.51 11.34Q160.45 11.31 160.39 11.31ZM161.38 12.45L161.23 12.24L161.02 12.39L161.2 12.63L161.38 12.45ZM161.53 12L161.65 12.18L161.68 12.18L161.53 11.97L161.53 12ZM186.76 28.92L186.55 28.56Q186.55 27.57 186.4 26.55Q186.28 25.53 186.28 24.57L186.28 23.76Q186.13 22.59 185.92 21.03Q185.71 19.44 185.38 18.03Q185.05 16.62 184.57 15.63Q184.09 14.64 183.37 14.64Q182.32 14.64 181.21 15.63Q180.1 16.59 179.35 18.45Q178.99 19.5 178.84 20.67Q178.72 21.84 178.63 23.13Q178.54 24.42 178.45 25.8Q178.39 27.15 178.18 28.62Q178.12 28.77 178.06 28.98Q178.03 29.19 178 29.34L174.31 29.34L174.31 26.91Q174.28 26.61 174.25 26.19Q174.22 25.77 174.16 25.35Q174.13 24.9 174.1 24.48Q174.07 24.06 174.04 23.76Q174.04 21.33 173.83 18.9Q173.65 16.47 173.59 13.95L174.28 13.8Q174.37 13.8 174.46 13.98Q174.58 14.13 174.64 14.58Q174.73 15.03 174.79 15.87Q174.88 16.68 174.94 18Q174.97 18 175.03 17.97Q175.15 17.91 175.21 17.91Q175.21 17.7 175.18 17.49Q175.18 17.28 175.18 17.07Q175.18 14.49 175.51 13.11Q175.87 11.7 176.11 11.7Q176.29 11.7 176.47 12.48Q176.65 13.26 176.86 14.94Q177.37 14.13 178.03 13.38Q178.69 12.63 179.5 12.09Q180.34 11.52 181.3 11.19Q182.26 10.86 183.4 10.86Q184.39 10.86 185.14 11.28Q185.89 11.7 186.46 12.39Q187.06 13.05 187.45 13.92Q187.87 14.76 188.17 15.63Q188.47 16.47 188.65 17.28Q188.86 18.06 189.01 18.6Q189.01 18.66 189.04 18.75Q189.07 18.81 189.1 18.87Q189.46 17.91 190 16.68Q190.54 15.42 191.35 14.31Q192.16 13.2 193.24 12.45Q194.35 11.67 195.79 11.67Q197.2 11.67 198.19 12.42Q199.18 13.17 199.84 14.34Q200.53 15.51 200.92 16.95Q201.34 18.36 201.55 19.74Q201.76 21.09 201.82 22.23Q201.88 23.37 201.88 23.97Q201.88 24.93 201.79 25.38Q201.73 25.83 201.4 25.83Q201.34 24.63 201.28 23.4Q201.25 22.17 201.1 20.94Q200.98 19.68 200.74 18.48Q200.5 17.31 200.11 16.17Q200.86 18.54 200.98 20.91Q201.13 23.31 201.22 25.65Q201.01 25.44 200.89 25.44Q200.8 25.44 200.77 25.56L200.77 26.46Q200.77 26.85 200.77 27.27Q200.8 27.69 200.86 27.99Q200.8 29.22 200.74 29.76Q200.71 30.27 200.53 30.42Q200.29 30.42 200.11 30.15Q199.93 29.88 199.75 29.46Q199.6 29.04 199.45 28.53Q199.3 28.02 199.15 27.54L199.15 26.73Q199.15 25.41 199.12 23.97Q199.12 22.53 199 21.18Q198.91 19.8 198.67 18.57Q198.46 17.34 198.07 16.41Q197.71 15.45 197.11 14.91Q196.54 14.37 195.7 14.37Q195.01 14.37 194.44 14.73Q194.11 14.94 193.78 15.27Q194.11 14.97 194.47 14.76Q195.04 14.4 195.7 14.4L195.82 14.4Q196.57 14.4 197.08 15Q197.62 15.57 197.95 16.53Q198.31 17.49 198.49 18.72Q198.67 19.95 198.76 21.27Q198.88 22.59 198.91 23.91Q198.94 25.2 198.97 26.28Q198.79 25.44 198.64 24.3Q198.52 23.13 198.37 21.87Q198.25 20.61 198.04 19.38Q197.86 18.15 197.56 17.19Q197.26 16.2 196.81 15.6Q196.36 15 195.7 15Q195.43 15 195.22 15.06Q195.01 15.09 194.68 15.36L194.38 15.21Q193.36 16.11 192.67 17.61Q191.98 19.11 191.5 20.85Q191.02 22.56 190.69 24.36Q190.36 26.16 190.06 27.69L190.06 28.83Q190.54 26.46 190.93 24.18Q191.35 21.87 192.13 19.71Q191.53 21.57 191.2 23.55Q190.87 25.53 190.45 27.6Q190.45 27.81 190.36 28.17Q190.27 28.53 190.06 29.25L186.76 28.92ZM186.64 28.17L186.88 27.06Q186.79 26.25 186.7 24.99Q186.64 23.73 186.52 22.32Q186.4 20.91 186.19 19.47Q185.98 18.03 185.59 16.89Q185.23 15.72 184.66 15Q184.12 14.28 183.28 14.28Q183.01 14.28 182.71 14.4Q182.41 14.52 182.14 14.67Q182.23 14.64 182.29 14.64L182.32 14.64Q182.32 14.67 182.23 14.76Q183.04 14.49 183.49 14.49Q184.06 14.7 184.51 15.42Q184.96 16.14 185.26 17.16Q185.59 18.15 185.8 19.32Q186.04 20.49 186.16 21.57Q186.28 22.62 186.34 23.46Q186.4 24.3 186.4 24.66Q186.49 25.56 186.55 26.43Q186.64 27.3 186.64 28.17ZM189.4 18.99Q189.4 19.02 189.46 19.26Q189.52 19.47 189.55 19.53Q189.64 19.23 189.94 18.57Q190.24 17.88 190.6 17.13Q190.96 16.35 191.29 15.69Q191.41 15.42 191.5 15.21Q191.41 15.39 191.26 15.6Q190.93 16.2 190.54 16.86Q190.15 17.49 189.82 18.09Q189.49 18.69 189.4 18.99ZM191.77 18.63Q191.17 20.16 190.72 21.87Q190.27 23.55 189.91 25.35L189.97 25.83Q190.36 23.67 190.87 21.48Q191.35 19.56 192.1 17.85Q192.07 17.94 192.04 18Q191.89 18.3 191.77 18.63ZM187.09 24.21L186.88 22.71Q186.94 23.19 186.94 23.64Q186.97 24.09 187 24.48L187.09 25.92L187.12 25.77Q187.09 25.35 187.09 24.96L187.09 24.21ZM196.09 12.42L196.72 12.42Q196.18 12.27 195.7 12.27L195.37 12.27Q195.16 12.27 195.16 12.3L195.19 12.3Q195.67 12.42 196.09 12.42ZM192.49 18.81L192.28 19.29Q192.43 18.87 192.55 18.48Q192.7 18.09 192.79 17.94Q192.79 18 192.73 18.18Q192.67 18.39 192.49 18.81ZM198.79 13.68Q198.64 13.5 198.4 13.32Q198.22 13.2 198.07 13.11Q198.43 13.35 198.79 13.68ZM191.65 14.94Q191.59 15 191.56 15.12Q191.62 15.03 191.65 14.94ZM210.55 14.88L211.06 14.88Q212.8 14.88 214.51 15.51Q216.22 16.11 217.57 17.22Q218.92 18.33 219.73 19.89Q220.57 21.42 220.57 23.25Q220.57 25.2 220.03 26.52Q219.49 27.81 218.5 28.65Q217.51 29.49 216.13 29.97Q214.75 30.42 213.07 30.72Q214.12 30.63 215.41 30.33Q216.73 30.03 217.87 29.28Q219.04 28.5 219.82 27.15Q220.6 25.77 220.6 23.55Q220.6 20.82 219.07 18.63Q217.54 16.44 214.51 15.33Q213.76 15 212.95 14.82Q212.17 14.61 211.36 14.61Q211.63 14.46 212.08 14.46Q212.53 14.43 212.8 14.43Q213.97 14.43 215.2 14.91Q216.46 15.39 217.57 16.23Q218.68 17.07 219.52 18.21Q220.39 19.32 220.81 20.58Q220.66 20.64 220.54 20.82Q220.78 21.57 220.9 22.29Q221.02 23.01 221.02 23.76Q221.02 24.6 220.87 25.44Q220.75 26.28 220.33 27.09Q219.94 27.9 219.19 28.62Q218.47 29.34 217.27 29.91Q216.07 30.48 214.33 30.87Q212.59 31.23 210.19 31.35Q210.04 31.44 209.77 31.47Q209.5 31.47 209.23 31.47L208.81 31.47Q208.36 31.47 207.88 31.32Q207.4 31.14 207.01 30.75Q206.62 30.33 206.38 29.67Q206.14 28.98 206.14 27.96L206.14 27.63Q206.11 27.75 206.05 27.75Q205.96 27.75 205.96 27.69L205.96 27.84Q205.96 28.38 206.02 29.07Q206.08 29.73 206.35 30.33Q206.65 30.93 207.25 31.35Q207.88 31.74 209.02 31.74Q209.29 31.74 209.56 31.74Q209.86 31.71 210.19 31.62Q212.38 31.53 214.36 31.14Q216.37 30.75 217.9 29.88Q219.43 28.98 220.33 27.45Q221.23 25.92 221.23 23.52Q221.23 22.74 221.11 21.93Q221.14 22.26 221.2 22.56Q221.26 23.04 221.26 23.52Q221.26 24.18 221.17 25.02Q221.11 25.86 220.78 26.73Q220.48 27.6 219.88 28.44Q219.28 29.28 218.2 29.91Q217.09 30.57 215.89 30.96Q214.72 31.32 213.64 31.53Q212.59 31.71 211.72 31.77Q210.88 31.8 210.46 31.8L210.1 31.8Q209.83 31.8 209.53 31.86Q209.26 31.89 208.93 31.89L208.78 31.89Q208.51 31.89 208.09 31.83Q207.7 31.77 207.25 31.53Q206.83 31.29 206.47 30.78Q206.11 30.24 205.96 29.28Q205.9 28.95 205.87 28.62Q205.84 28.29 205.78 28.02Q205.78 27.42 205.87 26.91Q205.96 26.37 205.96 26.04L205.96 20.55L204.88 14.88Q204.91 14.28 204.94 13.56Q205 12.84 205.03 12.09Q205.09 11.31 205.12 10.56Q205.15 9.81 205.15 9.12Q205.15 8.88 205.12 8.67Q205.12 8.43 205.12 8.22Q205.21 8.31 205.3 8.31Q205.42 8.31 205.54 8.25Q205.69 8.16 205.81 8.16Q205.9 8.16 205.99 8.25Q206.08 8.34 206.14 8.58Q206.23 8.82 206.26 9.3Q206.29 9.75 206.29 10.47L206.56 10.47Q206.68 8.82 206.98 7.89Q207.31 6.96 207.64 6.96Q208.03 6.96 208.21 7.92Q208.39 8.88 208.45 10.35Q208.54 11.79 208.6 13.53Q208.66 15.24 208.84 16.77Q209.17 18.54 209.38 20.55Q209.59 22.53 209.65 24.42Q209.65 25.83 209.62 26.43Q209.59 27.03 209.53 27.3L209.53 28.11L210.55 28.02Q211.51 28.02 212.53 27.93Q213.55 27.81 214.24 27.57Q215.5 27.36 216.19 26.97Q216.91 26.55 217.27 26.07Q217.63 25.59 217.72 25.05Q217.81 24.51 217.81 24.03Q217.81 23.1 217.66 22.26Q217.54 21.39 217.15 20.67Q216.76 19.92 216.01 19.32Q215.26 18.69 214.06 18.21Q212.74 17.7 212.14 17.61Q211.57 17.52 211.57 17.25Q211.57 17.22 211.63 17.04Q212.89 17.1 214.15 17.64Q215.32 18.15 216.28 18.93Q215.35 18.15 214.21 17.64Q212.98 17.07 211.72 16.95Q211.81 16.83 211.81 16.65Q211.81 16.56 211.72 16.41L211.21 16.41Q211 16.41 210.76 16.44Q210.52 16.47 210.37 16.5Q209.65 16.44 209.35 16.29Q209.08 16.14 209.08 15.93Q209.08 15.63 209.56 15.33Q210.07 15.03 210.55 14.88ZM218.44 23.46Q218.44 24.84 218.11 25.71Q217.78 26.58 217.18 27.06Q217.96 26.52 218.2 25.68Q218.47 24.84 218.47 23.55Q218.47 23.34 218.44 23.16Q218.44 23.01 218.41 22.83Q218.41 23.01 218.41 23.16Q218.44 23.31 218.44 23.46ZM221.08 21.69L221.05 21.57L221.08 21.69ZM216.37 19.02Q216.31 18.99 216.28 18.93Q216.34 18.96 216.37 19.02ZM221.08 21.72Q221.08 21.78 221.08 21.81Q221.08 21.78 221.08 21.72Z" />
	</g>
</svg>