<svg version="1.2" baseProfile="tiny-ps" xmlns="http://www.w3.org/2000/svg" viewBox="0 0 236 40" width="236" height="40">
	<title>logo-svg-svg-svg</title>
	<style>
		tspan { white-space:pre }
		.shp0 { fill: #000000 } 
		.shp1 { fill: #eade00 } 
	</style>
	<g id="Layer">
		<path id="m_n_n___mb " class="shp0" d="M17.64 11.92L22.02 11.92L22.15 14.02C23.6 12.37 25.59 11.55 28.11 11.55C30.88 11.55 32.77 12.58 33.79 14.63C35.29 12.58 37.4 11.55 40.13 11.55C42.42 11.55 44.11 12.16 45.22 13.39C46.34 14.62 46.91 16.42 46.94 18.81L46.94 32L42.29 32L42.29 18.94C42.29 17.67 42 16.73 41.43 16.14C40.86 15.55 39.91 15.25 38.59 15.25C37.53 15.25 36.66 15.53 35.99 16.08C35.32 16.63 34.86 17.34 34.59 18.23L34.61 32L29.97 32L29.97 18.79C29.9 16.43 28.66 15.25 26.24 15.25C24.38 15.25 23.06 15.98 22.28 17.45L22.28 32L17.64 32L17.64 11.92ZM66.91 32L66.91 35.54L49.38 35.54L49.38 32L66.91 32ZM69.3 11.92L73.68 11.92L73.81 14.24C75.34 12.45 77.34 11.55 79.83 11.55C84.14 11.55 86.33 13.94 86.4 18.73L86.4 32L81.76 32L81.76 18.99C81.76 17.72 81.47 16.78 80.9 16.17C80.34 15.56 79.42 15.25 78.13 15.25C76.26 15.25 74.86 16.07 73.94 17.71L73.94 32L69.3 32L69.3 11.92ZM106.34 32L106.34 35.54L88.81 35.54L88.81 32L106.34 32ZM108.73 11.92L113.1 11.92L113.24 14.24C114.77 12.45 116.77 11.55 119.26 11.55C123.57 11.55 125.76 13.94 125.83 18.73L125.83 32L121.19 32L121.19 18.99C121.19 17.72 120.9 16.78 120.33 16.17C119.76 15.56 118.84 15.25 117.55 15.25C115.68 15.25 114.29 16.07 113.37 17.71L113.37 32L108.73 32L108.73 11.92ZM145.76 32L145.76 35.54L128.24 35.54L128.24 32L145.76 32ZM163.42 32L163.42 35.54L145.9 35.54L145.9 32L163.42 32ZM181.08 32L181.08 35.54L163.56 35.54L163.56 32L181.08 32Z" />
		<path id="m_n_n___mb " fill-rule="evenodd" class="shp1" d="M183.53 11.92L187.9 11.92L188.04 14.02C189.49 12.37 191.48 11.55 194 11.55C196.77 11.55 198.66 12.58 199.68 14.63C201.18 12.58 203.29 11.55 206.02 11.55C208.3 11.55 209.99 12.16 211.1 13.39C212.23 14.62 212.8 16.42 212.82 18.81L212.82 32L208.18 32L208.18 18.94C208.18 17.67 207.89 16.73 207.32 16.14C206.75 15.55 205.8 15.25 204.47 15.25C203.42 15.25 202.55 15.53 201.87 16.08C201.21 16.63 200.75 17.34 200.48 18.23L200.5 32L195.85 32L195.85 18.79C195.79 16.43 194.55 15.25 192.13 15.25C190.27 15.25 188.95 15.98 188.17 17.45L188.17 32L183.53 32L183.53 11.92ZM235.74 21.91L235.74 22.17C235.74 25.28 235.02 27.76 233.58 29.61C232.15 31.45 230.18 32.37 227.67 32.37C225.25 32.37 223.37 31.52 222.02 29.83L221.79 32L217.58 32L217.58 3.5L222.23 3.5L222.23 13.85C223.56 12.32 225.37 11.55 227.64 11.55C230.16 11.55 232.14 12.46 233.58 14.28C235.02 16.1 235.74 18.64 235.74 21.91ZM231.1 22.35L231.1 21.78C231.1 19.6 230.7 17.97 229.91 16.88C229.12 15.79 227.98 15.25 226.47 15.25C224.46 15.25 223.04 16.1 222.23 17.81L222.23 26.08C223.06 27.83 224.48 28.7 226.51 28.7C227.96 28.7 229.08 28.17 229.87 27.12C230.66 26.07 231.07 24.48 231.1 22.35Z" />
	</g>
</svg>