<svg version="1.2" baseProfile="tiny-ps" xmlns="http://www.w3.org/2000/svg" viewBox="0 0 236 40" width="236" height="40">
	<title>logo-svg-svg-svg</title>
	<style>
		tspan { white-space:pre }
	</style>
	<g id="Layer">
		<path id="ma_photography " fill="#000000" aria-label="ma_photography"  d="M12.42 17.15L16.39 17.15L16.52 18.92Q18.2 16.86 21.08 16.86Q24.14 16.86 25.28 19.27Q26.95 16.86 30.04 16.86Q32.62 16.86 33.88 18.37Q35.14 19.86 35.14 22.88L35.14 33L30.89 33L30.89 22.89Q30.89 21.54 30.36 20.93Q29.84 20.3 28.5 20.3Q26.6 20.3 25.87 22.12L25.88 33L21.65 33L21.65 22.91Q21.65 21.53 21.11 20.92Q20.56 20.3 19.26 20.3Q17.46 20.3 16.65 21.79L16.65 33L12.42 33L12.42 17.15ZM51.85 33L47.57 33Q47.28 32.43 47.15 31.58Q45.61 33.29 43.15 33.29Q40.82 33.29 39.28 31.95Q37.76 30.6 37.76 28.55Q37.76 26.03 39.62 24.68Q41.5 23.33 45.03 23.32L46.97 23.32L46.97 22.41Q46.97 21.31 46.4 20.65Q45.85 19.99 44.63 19.99Q43.56 19.99 42.95 20.5Q42.35 21.02 42.35 21.91L38.11 21.91Q38.11 20.53 38.96 19.36Q39.81 18.19 41.36 17.53Q42.92 16.86 44.85 16.86Q47.78 16.86 49.49 18.34Q51.22 19.8 51.22 22.47L51.22 29.34Q51.24 31.59 51.85 32.75L51.85 33ZM44.07 30.06Q45.01 30.06 45.8 29.65Q46.59 29.22 46.97 28.52L46.97 25.79L45.39 25.79Q42.21 25.79 42.01 27.99L41.99 28.24Q41.99 29.03 42.55 29.54Q43.11 30.06 44.07 30.06ZM66.21 33L66.21 36.31L52.86 36.31L52.86 33L66.21 33ZM82.13 25L82.13 25.22Q82.13 28.88 80.46 31.1Q78.81 33.29 75.98 33.29Q73.58 33.29 72.1 31.62L72.1 39.09L67.86 39.09L67.86 17.15L71.79 17.15L71.94 18.7Q73.47 16.86 75.95 16.86Q78.88 16.86 80.5 19.03Q82.13 21.19 82.13 25ZM77.9 24.91Q77.9 22.7 77.11 21.5Q76.33 20.3 74.84 20.3Q72.84 20.3 72.1 21.82L72.1 28.31Q72.87 29.88 74.86 29.88Q77.9 29.88 77.9 24.91ZM88.88 10.5L88.88 18.88Q90.57 16.86 93.12 16.86Q98.27 16.86 98.35 22.85L98.35 33L94.11 33L94.11 22.97Q94.11 21.6 93.53 20.96Q92.94 20.3 91.58 20.3Q89.72 20.3 88.88 21.74L88.88 33L84.65 33L84.65 10.5L88.88 10.5ZM100.88 25.12L100.88 24.93Q100.88 22.57 101.79 20.72Q102.7 18.88 104.4 17.87Q106.11 16.86 108.37 16.86Q111.57 16.86 113.6 18.82Q115.63 20.78 115.87 24.15L115.9 25.24Q115.9 28.88 113.86 31.1Q111.82 33.29 108.4 33.29Q104.97 33.29 102.92 31.1Q100.88 28.9 100.88 25.12ZM105.11 25.24Q105.11 27.49 105.96 28.69Q106.81 29.88 108.4 29.88Q109.93 29.88 110.8 28.71Q111.66 27.52 111.66 24.93Q111.66 22.72 110.8 21.5Q109.93 20.29 108.37 20.29Q106.81 20.29 105.96 21.5Q105.11 22.7 105.11 25.24ZM119.34 13.25L123.57 13.25L123.57 17.15L126.28 17.15L126.28 20.26L123.57 20.26L123.57 28.17Q123.57 29.04 123.91 29.43Q124.24 29.81 125.2 29.81Q125.9 29.81 126.44 29.7L126.44 32.91Q125.2 33.29 123.88 33.29Q119.43 33.29 119.34 28.8L119.34 20.26L117.02 20.26L117.02 17.15L119.34 17.15L119.34 13.25ZM127.54 25.12L127.54 24.93Q127.54 22.57 128.45 20.72Q129.36 18.88 131.06 17.87Q132.77 16.86 135.03 16.86Q138.23 16.86 140.26 18.82Q142.29 20.78 142.53 24.15L142.56 25.24Q142.56 28.88 140.52 31.1Q138.48 33.29 135.06 33.29Q131.63 33.29 129.58 31.1Q127.54 28.9 127.54 25.12ZM131.77 25.24Q131.77 27.49 132.62 28.69Q133.47 29.88 135.06 29.88Q136.59 29.88 137.46 28.71Q138.32 27.52 138.32 24.93Q138.32 22.72 137.46 21.5Q136.59 20.29 135.03 20.29Q133.47 20.29 132.62 21.5Q131.77 22.7 131.77 25.24ZM144.55 25.13L144.55 24.96Q144.55 21.31 146.28 19.08Q148.02 16.86 150.96 16.86Q153.57 16.86 155.02 18.64L155.2 17.15L159.03 17.15L159.03 32.47Q159.03 34.55 158.08 36.09Q157.15 37.63 155.43 38.43Q153.72 39.24 151.42 39.24Q149.67 39.24 148.02 38.55Q146.36 37.85 145.51 36.75L147.39 34.17Q148.97 35.94 151.23 35.94Q152.91 35.94 153.85 35.05Q154.79 34.14 154.79 32.49L154.79 31.64Q153.32 33.29 150.93 33.29Q148.08 33.29 146.31 31.07Q144.55 28.83 144.55 25.13ZM148.78 25.27Q148.78 27.42 149.65 28.65Q150.51 29.87 152.02 29.87Q153.95 29.87 154.79 28.42L154.79 21.75Q153.94 20.3 152.05 20.3Q150.52 20.3 149.65 21.54Q148.78 22.79 148.78 25.27ZM171.25 17.05L171.19 21.12Q170.33 21 169.67 21Q167.27 21 166.52 22.63L166.52 33L162.29 33L162.29 17.15L166.29 17.15L166.4 19.04Q167.68 16.86 169.93 16.86Q170.64 16.86 171.25 17.05ZM186.25 33L181.97 33Q181.68 32.43 181.55 31.58Q180.01 33.29 177.55 33.29Q175.22 33.29 173.68 31.95Q172.16 30.6 172.16 28.55Q172.16 26.03 174.02 24.68Q175.9 23.33 179.43 23.32L181.37 23.32L181.37 22.41Q181.37 21.31 180.8 20.65Q180.25 19.99 179.03 19.99Q177.96 19.99 177.35 20.5Q176.74 21.02 176.74 21.91L172.51 21.91Q172.51 20.53 173.36 19.36Q174.21 18.19 175.76 17.53Q177.32 16.86 179.25 16.86Q182.18 16.86 183.89 18.34Q185.62 19.8 185.62 22.47L185.62 29.34Q185.64 31.59 186.25 32.75L186.25 33ZM178.47 30.06Q179.41 30.06 180.2 29.65Q180.99 29.22 181.37 28.52L181.37 25.79L179.79 25.79Q176.61 25.79 176.41 27.99L176.39 28.24Q176.39 29.03 176.95 29.54Q177.51 30.06 178.47 30.06ZM203.14 25L203.14 25.22Q203.14 28.88 201.47 31.1Q199.82 33.29 196.99 33.29Q194.59 33.29 193.11 31.62L193.11 39.09L188.87 39.09L188.87 17.15L192.8 17.15L192.95 18.7Q194.48 16.86 196.96 16.86Q199.89 16.86 201.52 19.03Q203.14 21.19 203.14 25ZM198.91 24.91Q198.91 22.7 198.12 21.5Q197.34 20.3 195.85 20.3Q193.85 20.3 193.11 21.82L193.11 28.31Q193.88 29.88 195.88 29.88Q198.91 29.88 198.91 24.91ZM209.89 10.5L209.89 18.88Q211.58 16.86 214.13 16.86Q219.28 16.86 219.36 22.85L219.36 33L215.12 33L215.12 22.97Q215.12 21.6 214.54 20.96Q213.95 20.3 212.59 20.3Q210.73 20.3 209.89 21.74L209.89 33L205.66 33L205.66 10.5L209.89 10.5ZM225.52 17.15L228.47 27.01L231.4 17.15L235.94 17.15L229.57 35.46L229.22 36.3Q227.79 39.4 224.53 39.4Q223.61 39.4 222.65 39.12L222.65 35.92L223.3 35.93Q224.5 35.93 225.08 35.56Q225.69 35.2 226.02 34.35L226.52 33.04L220.97 17.15L225.52 17.15Z" />
	</g>
</svg>