<svg version="1.2" baseProfile="tiny-ps" xmlns="http://www.w3.org/2000/svg" viewBox="0 0 1920 350" width="1920" height="350">
	<title>rita_logo_1</title>
	<style>
		tspan { white-space:pre }
	</style>
	<path id="Margarita " fill="#000000" aria-label="Margarita"  d="M213.51 262.5L106.76 57.75L106.76 243.25L134.76 253.75L134.76 259L68.26 259L68.26 253.75L96.26 243.25L96.26 24.5L75.26 19.25L75.26 14L119.01 14Q137.21 14 147.71 21.7Q158.56 29.05 166.26 43.75L242.56 189.7L301.01 43.75Q306.96 28.35 317.11 21.35Q327.26 14 348.26 14L385.01 14L385.01 19.25L364.01 24.5L364.01 248.5L385.01 253.75L385.01 259L285.26 259L285.26 253.75L306.26 248.5L306.26 57.75L224.01 262.5L213.51 262.5ZM484.76 264.25Q453.61 264.25 436.81 250.95Q420.01 237.65 420.01 217Q420.01 203.35 425.96 190.05Q428.41 183.75 432.26 178.5Q446.61 175 463.41 172.2Q501.21 165.9 530.26 164.5L530.26 154Q530.26 115.15 520.81 100.45Q511.36 85.75 491.76 85.75Q484.41 85.75 479.16 87.5L474.26 89.25L474.26 141.75L469.71 142.8Q464.11 143.5 460.26 143.5Q448.36 143.5 441.01 136.5Q434.01 129.15 434.01 117.25Q434.01 101.15 450.11 89.95Q466.56 78.75 498.76 78.75Q526.06 78.75 545.66 88.55Q565.61 98 575.76 115.15Q586.26 131.95 586.26 154L586.26 248.5L607.26 253.75L607.26 259L575.76 259Q554.76 259 543.21 246.05Q538.31 240.8 535.51 232.75Q530.61 241.5 523.96 248.5Q508.21 264.25 484.76 264.25ZM498.76 252Q511.71 252 522.21 238Q526.06 232.75 530.26 224L530.26 173.25Q514.16 173.25 499.46 175Q488.61 176.4 484.76 176.75Q483.01 180.6 481.26 187.25Q477.76 200.55 477.76 213.5Q477.76 233.1 483.71 242.55Q489.66 252 498.76 252ZM628.26 259L628.26 253.75L649.26 248.5L649.26 94.5L628.26 89.25L628.26 84L659.76 84Q680.41 84 692.31 97.3Q696.86 102.55 700.01 110.25Q705.26 102.55 712.96 96.25Q730.46 82.25 752.16 82.25Q770.71 82.25 779.81 91Q789.26 99.4 789.26 115.5Q789.26 127.4 781.91 134.75Q774.91 141.75 763.01 141.75Q758.11 141.75 753.21 141.05L749.01 140L749.01 91Q731.16 91 716.46 105Q709.46 112 705.26 119L705.26 248.5L726.26 253.75L726.26 259L628.26 259ZM880.26 334.25Q849.11 334.25 829.51 328.65Q809.91 323.05 801.16 314.3Q792.76 305.55 792.76 295.75Q792.76 283.85 799.76 276.85Q807.11 269.5 819.01 269.5Q821.81 269.5 829.16 270.55L833.01 271.25L833.01 320.25Q837.21 321.65 846.31 323.75Q862.41 327.25 876.76 327.25Q919.46 327.25 939.06 315.35Q959.01 303.1 959.01 285.25Q959.01 262.5 917.01 262.5L850.51 262.5Q824.26 262.5 810.26 251.65Q796.26 240.8 796.26 224Q796.26 207.2 812.71 194.25Q819.36 189.35 829.51 185.5Q816.56 177.45 810.61 166.6Q805.01 155.4 805.01 140Q805.01 114.1 824.61 98.35Q844.21 82.25 882.01 82.25Q898.46 82.25 912.11 85.75Q926.11 88.9 934.51 94.5Q937.31 88.55 941.86 84Q952.36 73.5 967.76 73.5Q979.66 73.5 987.71 81.9Q995.76 89.95 995.76 103.25Q995.76 113.4 990.16 119.7Q984.91 126 976.51 126Q972.66 126 967.76 125.3L964.26 124.25L964.26 82.25Q955.16 82.25 947.11 91Q943.96 94.15 941.51 99.75Q959.01 115.15 959.01 140Q959.01 165.9 939.41 182Q919.81 197.75 882.01 197.75Q856.81 197.75 836.51 189L829.51 192.5Q826.01 194.6 824.26 196.7Q822.51 198.45 822.51 201.25Q822.51 207.2 828.46 210.35Q834.76 213.5 850.51 213.5L917.01 213.5Q943.26 213.5 957.96 228.9Q973.01 243.95 973.01 271.25Q973.01 299.25 949.56 316.75Q926.46 334.25 880.26 334.25ZM882.01 190.75Q893.56 190.75 899.86 179.55Q906.51 168.35 906.51 140Q906.51 111.65 899.86 100.45Q893.56 89.25 882.01 89.25Q870.46 89.25 863.81 100.45Q857.51 111.65 857.51 140Q857.51 168.35 863.81 179.55Q870.46 190.75 882.01 190.75ZM1067.51 264.25Q1036.36 264.25 1019.56 250.95Q1002.76 237.65 1002.76 217Q1002.76 203.35 1008.71 190.05Q1011.16 183.75 1015.01 178.5Q1029.36 175 1046.16 172.2Q1083.96 165.9 1113.01 164.5L1113.01 154Q1113.01 115.15 1103.56 100.45Q1094.11 85.75 1074.51 85.75Q1067.16 85.75 1061.91 87.5L1057.01 89.25L1057.01 141.75L1052.46 142.8Q1046.86 143.5 1043.01 143.5Q1031.11 143.5 1023.76 136.5Q1016.76 129.15 1016.76 117.25Q1016.76 101.15 1032.86 89.95Q1049.31 78.75 1081.51 78.75Q1108.81 78.75 1128.41 88.55Q1148.36 98 1158.51 115.15Q1169.01 131.95 1169.01 154L1169.01 248.5L1190.01 253.75L1190.01 259L1158.51 259Q1137.51 259 1125.96 246.05Q1121.06 240.8 1118.26 232.75Q1113.36 241.5 1106.71 248.5Q1090.96 264.25 1067.51 264.25ZM1081.51 252Q1094.46 252 1104.96 238Q1108.81 232.75 1113.01 224L1113.01 173.25Q1096.91 173.25 1082.21 175Q1071.36 176.4 1067.51 176.75Q1065.76 180.6 1064.01 187.25Q1060.51 200.55 1060.51 213.5Q1060.51 233.1 1066.46 242.55Q1072.41 252 1081.51 252ZM1211.01 259L1211.01 253.75L1232.01 248.5L1232.01 94.5L1211.01 89.25L1211.01 84L1242.51 84Q1263.16 84 1275.06 97.3Q1279.61 102.55 1282.76 110.25Q1288.01 102.55 1295.71 96.25Q1313.21 82.25 1334.91 82.25Q1353.46 82.25 1362.56 91Q1372.01 99.4 1372.01 115.5Q1372.01 127.4 1364.66 134.75Q1357.66 141.75 1345.76 141.75Q1340.86 141.75 1335.96 141.05L1331.76 140L1331.76 91Q1313.91 91 1299.21 105Q1292.21 112 1288.01 119L1288.01 248.5L1309.01 253.75L1309.01 259L1211.01 259ZM1387.76 259L1387.76 253.75L1408.76 248.5L1408.76 94.5L1387.76 89.25L1387.76 84L1433.26 84Q1464.76 84 1464.76 115.5L1464.76 248.5L1485.76 253.75L1485.76 259L1387.76 259ZM1433.26 63Q1422.76 63 1415.76 56Q1408.76 49 1408.76 38.5Q1408.76 28 1415.76 21Q1422.76 14 1433.26 14Q1443.76 14 1450.76 21Q1457.76 28 1457.76 38.5Q1457.76 49 1450.76 56Q1443.76 63 1433.26 63ZM1597.76 264.25Q1574.66 264.25 1557.51 255.85Q1540.71 247.45 1531.61 232.75Q1522.51 218.05 1522.51 199.5L1522.51 92.75L1498.01 92.75L1498.01 84L1522.51 84L1522.51 66.5Q1522.51 35 1554.01 35L1578.51 35L1578.51 84L1627.51 84L1627.51 92.75L1578.51 92.75L1578.51 199.5Q1578.51 231.7 1585.16 243.6Q1591.81 255.5 1604.76 255.5Q1617.36 255.5 1626.81 243.25Q1636.26 231 1636.26 210L1645.01 210Q1645.01 235.9 1632.06 250.25Q1619.11 264.25 1597.76 264.25ZM1729.01 264.25Q1697.86 264.25 1681.06 250.95Q1664.26 237.65 1664.26 217Q1664.26 203.35 1670.21 190.05Q1672.66 183.75 1676.51 178.5Q1690.86 175 1707.66 172.2Q1745.46 165.9 1774.51 164.5L1774.51 154Q1774.51 115.15 1765.06 100.45Q1755.61 85.75 1736.01 85.75Q1728.66 85.75 1723.41 87.5L1718.51 89.25L1718.51 141.75L1713.96 142.8Q1708.36 143.5 1704.51 143.5Q1692.61 143.5 1685.26 136.5Q1678.26 129.15 1678.26 117.25Q1678.26 101.15 1694.36 89.95Q1710.81 78.75 1743.01 78.75Q1770.31 78.75 1789.91 88.55Q1809.86 98 1820.01 115.15Q1830.51 131.95 1830.51 154L1830.51 248.5L1851.51 253.75L1851.51 259L1820.01 259Q1799.01 259 1787.46 246.05Q1782.56 240.8 1779.76 232.75Q1774.86 241.5 1768.21 248.5Q1752.46 264.25 1729.01 264.25ZM1743.01 252Q1755.96 252 1766.46 238Q1770.31 232.75 1774.51 224L1774.51 173.25Q1758.41 173.25 1743.71 175Q1732.86 176.4 1729.01 176.75Q1727.26 180.6 1725.51 187.25Q1722.01 200.55 1722.01 213.5Q1722.01 233.1 1727.96 242.55Q1733.91 252 1743.01 252Z" />
</svg>